<svg width="170" height="77" viewBox="0 0 170 77" fill="none" xmlns="http://www.w3.org/2000/svg">
<path d="M15.498 23.656H14.986L15.05 23.464L14.986 23.4C14.7727 23.4427 14.5593 23.4 14.346 23.272C14.5167 23.1867 14.5807 23.144 14.538 23.144C14.538 23.144 14.5593 23.0587 14.602 22.888C14.3887 22.8453 14.282 22.7813 14.282 22.696C14.3247 22.568 14.346 22.4187 14.346 22.248L14.474 21.928C14.73 21.928 14.858 21.9707 14.858 22.056C14.9007 22.0987 14.9433 21.992 14.986 21.736C14.986 21.736 14.9647 21.7147 14.922 21.672C14.8793 21.6293 14.8367 21.6293 14.794 21.672L14.73 21.416L15.242 21.608C15.242 21.1813 15.2847 20.9253 15.37 20.84C15.4553 20.7547 15.7113 20.712 16.138 20.712L16.01 19.88H16.138C16.3087 20.1787 16.4153 20.328 16.458 20.328C16.5433 20.328 16.65 20.136 16.778 19.752C16.522 19.752 16.3513 19.7307 16.266 19.688H16.522C16.6927 19.6027 16.8207 19.56 16.906 19.56H17.098C17.2687 19.56 17.354 19.3893 17.354 19.048H17.546C17.7167 18.8773 17.93 18.7707 18.186 18.728V19.24C18.314 19.2827 18.5487 19.3893 18.89 19.56C18.7193 19.816 18.506 20.0507 18.25 20.264C17.994 20.4773 17.802 20.7547 17.674 21.096C17.5033 21.48 17.4393 21.9067 17.482 22.376C17.5673 22.8453 17.3327 23.1867 16.778 23.4C16.65 23.4427 16.5433 23.4853 16.458 23.528C16.3727 23.528 16.2873 23.528 16.202 23.528C15.946 23.528 15.7113 23.4427 15.498 23.272V23.656ZM4.618 75.816C4.362 75.9013 4.234 75.8587 4.234 75.688C4.234 75.56 4.19133 75.5173 4.106 75.56L3.786 75.688C3.402 75.5173 2.99667 75.112 2.57 74.472C2.10067 73.832 1.71667 73.128 1.418 72.36C1.07667 71.6347 0.884666 71.08 0.842 70.696C0.927333 70.6107 0.969999 70.5467 0.969999 70.504C0.969999 70.4187 0.927333 70.312 0.842 70.184C0.756667 70.0987 0.714 70.0347 0.714 69.992C0.714 69.992 0.735333 69.8427 0.778 69.544C0.820667 69.288 0.756667 69.16 0.585999 69.16L0.842 68.456C0.799333 68.3707 0.756667 68.4133 0.714 68.584C0.628666 68.7547 0.585999 68.8613 0.585999 68.904C0.543333 68.8187 0.521999 68.6907 0.521999 68.52C0.521999 68.2213 0.585999 67.9227 0.714 67.624C0.841999 67.368 0.969999 67.1333 1.098 66.92L0.585999 66.088L0.842 64.744L1.226 64.616L1.098 63.592C1.52467 63.3787 1.65267 62.9947 1.482 62.44L1.994 62.184L1.866 61.544L2.506 61.16L2.25 60.648L3.146 60.264L2.762 59.88C3.06067 59.368 3.44467 58.8773 3.914 58.408C4.34067 57.9387 4.76733 57.4907 5.194 57.064V56.936L6.346 55.656L6.538 55.72C6.58067 55.1653 6.83667 54.7387 7.306 54.44C7.77533 54.1413 8.138 53.7787 8.394 53.352L9.098 53.544L9.226 52.84C9.65267 52.2853 10.2927 52.008 11.146 52.008C11.1033 51.6667 11.2313 51.2827 11.53 50.856C11.8713 50.4293 12.2553 50.0453 12.682 49.704C13.1513 49.4053 13.5353 49.256 13.834 49.256C13.7487 49.1707 13.706 49.1067 13.706 49.064C13.706 48.936 13.834 48.8507 14.09 48.808C14.3887 48.7653 14.4313 48.6373 14.218 48.424H14.986C14.9433 48.296 14.922 48.1467 14.922 47.976C14.922 47.72 15.0073 47.528 15.178 47.4C15.3487 47.2293 15.4553 46.9947 15.498 46.696H15.114C15.242 45.928 15.4767 45.3307 15.818 44.904C15.7753 44.8613 15.7753 44.7547 15.818 44.584C15.8607 44.4133 15.9033 44.3707 15.946 44.456L16.01 43.944C15.9673 43.688 15.946 43.2613 15.946 42.664C15.9887 42.0667 16.01 41.6827 16.01 41.512L16.394 41.384H16.01C16.0527 40.744 16.2233 40.04 16.522 39.272L16.266 38.248C16.266 38.2053 16.33 38.0773 16.458 37.864C16.6287 37.608 16.6073 37.5653 16.394 37.736C16.394 37.0533 16.4367 36.4773 16.522 36.008C16.6073 35.496 16.714 34.8987 16.842 34.216L16.714 34.024C16.714 33.9387 16.7353 33.9173 16.778 33.96C16.8633 33.96 16.906 33.96 16.906 33.96C17.0767 33.8747 17.0767 33.7253 16.906 33.512C16.7353 33.384 16.65 33.1493 16.65 32.808C16.65 32.5947 16.6713 32.36 16.714 32.104C16.7993 31.8053 16.8633 31.592 16.906 31.464C16.8633 31.3787 16.8207 31.4 16.778 31.528C16.7353 31.6133 16.6927 31.6773 16.65 31.72V30.952C16.5647 30.7813 16.522 30.632 16.522 30.504C16.522 30.2907 16.5647 30.12 16.65 29.992C16.7353 29.8213 16.8207 29.672 16.906 29.544C16.778 29.1173 16.65 28.712 16.522 28.328C16.4367 27.944 16.3513 27.5387 16.266 27.112C16.3513 27.0267 16.458 27.048 16.586 27.176C16.714 27.304 16.7353 27.4107 16.65 27.496L17.418 27.624L17.866 28.392L18.186 28.52L18.89 29.288V30.568L19.082 30.952V31.144C19.082 31.3573 19.018 31.5707 18.89 31.784C18.762 31.9973 18.698 32.2107 18.698 32.424C18.954 32.424 19.082 32.5307 19.082 32.744C18.9967 33.1707 18.9113 33.768 18.826 34.536C18.7833 35.2613 18.7407 36.008 18.698 36.776C18.698 37.544 18.698 38.184 18.698 38.696H18.762C18.8047 38.696 18.826 38.696 18.826 38.696C18.8687 38.6533 18.89 38.632 18.89 38.632C18.9753 38.632 19.018 38.7173 19.018 38.888C19.018 38.9733 18.9967 39.1013 18.954 39.272C18.954 39.4427 18.9327 39.6773 18.89 39.976L18.378 40.104L18.186 40.744C18.2713 40.7867 18.314 40.7653 18.314 40.68C18.3567 40.552 18.3993 40.488 18.442 40.488V40.744L18.698 41.128L18.57 41.896H18.186L18.442 42.664C18.2713 42.7067 18.122 42.9627 17.994 43.432C17.9087 43.8587 17.866 44.1573 17.866 44.328L17.994 44.2C18.0793 44.2 18.122 44.3067 18.122 44.52C18.1647 44.7333 18.186 44.8827 18.186 44.968L19.402 44.072V43.432H19.722L20.234 42.28C20.3193 42.408 20.426 42.3867 20.554 42.216C20.7247 42.0453 20.7033 41.9387 20.49 41.896L21.13 41.512L21.642 40.232H22.09V39.592L22.602 39.272V38.696L22.986 38.568L23.114 37.672L23.306 37.864V37.672L23.626 36.648L24.01 36.712L24.202 36.008L24.522 36.072C24.6073 36.4133 24.65 36.648 24.65 36.776C24.65 37.3307 24.5007 37.864 24.202 38.376C23.946 38.8453 23.6047 39.2507 23.178 39.592L23.306 40.104L22.794 40.488L22.154 42.024L22.09 41.64L21.578 42.408L21.962 42.536C21.706 43.0053 21.4287 43.3467 21.13 43.56C20.874 43.7307 20.49 43.8587 19.978 43.944C19.9353 43.9867 19.9993 44.0507 20.17 44.136C20.3407 44.1787 20.426 44.2 20.426 44.2L20.234 44.712C19.978 44.9253 19.722 45.16 19.466 45.416C19.21 45.672 18.9113 45.864 18.57 45.992V46.504L17.866 46.76L17.162 48.04L17.418 48.232V48.808L16.65 49.064L17.034 49.448L17.162 49.32V49.96C17.1193 50.0027 16.97 50.472 16.714 51.368C16.5007 52.264 16.2233 53.3093 15.882 54.504C15.5833 55.6987 15.306 56.7867 15.05 57.768C14.8367 58.7493 14.73 59.3253 14.73 59.496C14.5593 59.2827 14.41 59.4107 14.282 59.88C14.154 60.392 14.0473 60.9253 13.962 61.48C13.8767 62.0773 13.834 62.44 13.834 62.568L13.194 62.696L12.81 63.336H13.578C13.2367 63.8053 13.0447 64.2107 13.002 64.552C13.002 64.8933 12.938 65.256 12.81 65.64C12.7247 66.0667 12.3407 66.6213 11.658 67.304H12.042L11.786 68.776L11.146 68.648C11.1033 68.6907 11.1033 68.7547 11.146 68.84C11.2313 68.9253 11.3167 68.968 11.402 68.968C11.402 69.5227 11.2527 69.928 10.954 70.184C11.1247 70.4827 11.0607 70.888 10.762 71.4C10.506 71.9547 10.3353 72.4027 10.25 72.744L9.866 72.872C9.82333 72.9147 9.866 72.936 9.994 72.936C10.122 72.936 10.1647 72.9573 10.122 73C10.0367 73.0427 9.90867 73.0213 9.738 72.936C9.52467 72.8507 9.418 72.872 9.418 73L9.738 73.768L9.098 73.896C9.05533 74.152 9.05533 74.344 9.098 74.472C9.098 74.6 9.034 74.7067 8.906 74.792L8.202 75.176C8.28733 75.2613 8.28733 75.3467 8.202 75.432L6.026 75.688C5.42867 75.3893 5.13 75.0267 5.13 74.6C5.13 74.3013 5.21533 73.9813 5.386 73.64C5.55667 73.2987 5.66333 72.936 5.706 72.552H6.154C6.19667 72.5947 6.17533 72.616 6.09 72.616C6.00467 72.6587 5.98333 72.7013 6.026 72.744C6.026 72.7867 6.06867 72.8293 6.154 72.872C6.19667 72.9147 6.218 72.9147 6.218 72.872C6.26067 72.8293 6.282 72.744 6.282 72.616C6.282 72.2747 6.23933 72.0187 6.154 71.848H6.858V71.72H6.346C6.38867 71.1227 6.58067 70.568 6.922 70.056C7.22067 69.5867 7.51933 69.1173 7.818 68.648C8.074 68.1787 8.15933 67.7307 8.074 67.304L8.394 66.408C8.56467 66.6213 8.73533 66.536 8.906 66.152C9.034 65.8107 9.162 65.384 9.29 64.872C9.37533 64.4027 9.418 64.1253 9.418 64.04L9.93 63.72L9.738 63.208L10.122 63.08C10.122 63.08 10.0793 63.0587 9.994 63.016C9.90867 63.016 9.866 62.952 9.866 62.824L10.378 62.44C10.3353 62.312 10.4207 61.9067 10.634 61.224C10.8473 60.584 11.1033 59.816 11.402 58.92C11.7433 58.024 12.042 57.1707 12.298 56.36C12.5967 55.592 12.7673 55.0373 12.81 54.696H13.194C13.194 54.6107 13.1727 54.5467 13.13 54.504C13.13 54.4613 13.13 54.4187 13.13 54.376C13.13 54.1627 13.1513 53.928 13.194 53.672C13.2793 53.4587 13.322 53.2453 13.322 53.032C13.4073 53.0747 13.45 52.9467 13.45 52.648L13.706 51.816L14.346 51.624V51.432C14.346 51.2187 14.3247 51.0053 14.282 50.792C14.2393 50.6213 14.218 50.4507 14.218 50.28H14.09C13.834 50.5787 13.514 50.8133 13.13 50.984C12.746 51.1973 12.3407 51.3467 11.914 51.432V51.496L12.426 51.816C11.7433 51.9867 11.1673 52.328 10.698 52.84C10.2287 53.3947 9.802 53.9493 9.418 54.504C9.37533 54.376 9.29 54.376 9.162 54.504C8.99133 54.632 8.97 54.76 9.098 54.888C8.842 55.0587 8.60733 55.336 8.394 55.72C8.18067 56.104 7.946 56.3387 7.69 56.424L7.178 56.552L7.37 56.744C7.02867 57 6.75133 57.3413 6.538 57.768C6.282 58.2373 6.04733 58.6427 5.834 58.984H5.45C5.49267 59.4533 5.386 59.9013 5.13 60.328C4.874 60.7547 4.70333 61.2027 4.618 61.672L3.914 61.8L4.17 62.44L3.658 62.568V64.36C3.61533 64.2747 3.594 64.232 3.594 64.232C3.55133 64.232 3.53 64.232 3.53 64.232C3.44467 64.232 3.402 64.3813 3.402 64.68C3.402 65.0213 3.402 65.2133 3.402 65.256L2.506 65.704L2.634 66.216H2.762C2.84733 66.0027 2.89 65.8747 2.89 65.832C2.84733 65.7893 2.97533 65.7467 3.274 65.704C3.23133 66.2587 3.018 66.8347 2.634 67.432C2.80467 67.6453 2.89 67.944 2.89 68.328C2.89 68.6693 2.826 69.0107 2.698 69.352C2.57 69.736 2.506 70.0987 2.506 70.44H2.57C2.78333 70.44 2.91133 70.6533 2.954 71.08C2.99667 71.5067 3.03933 71.8053 3.082 71.976L2.634 72.744L3.082 72.872L3.274 74.152C3.53 74.3653 3.786 74.6 4.042 74.856C4.298 75.1547 4.49 75.4747 4.618 75.816ZM27.9165 50.92L27.8525 51.88L26.5725 51.432L26.7645 51.304L26.2525 50.856C26.2098 50.856 26.2312 50.8347 26.3165 50.792C26.4018 50.792 26.4232 50.7707 26.3805 50.728C26.2098 50.6 26.0818 50.536 25.9965 50.536C26.0392 50.536 26.0605 50.472 26.0605 50.344C26.0605 50.2587 26.0178 50.2373 25.9325 50.28C25.8472 50.3227 25.8045 50.3227 25.8045 50.28L25.8685 49.896H25.6125C25.5698 49.512 25.4845 49.1493 25.3565 48.808C25.2712 48.4667 25.1645 48.1467 25.0365 47.848C25.0792 47.7627 25.1432 47.7413 25.2285 47.784C25.3138 47.784 25.3565 47.7627 25.3565 47.72L24.9725 47.592V47.4L24.9085 46.76C25.0792 46.6747 25.1645 46.632 25.1645 46.632C25.1645 46.632 25.0792 46.632 24.9085 46.632C24.7378 46.632 24.7165 46.4613 24.8445 46.12C25.0152 45.7787 25.0152 45.672 24.8445 45.8L24.6525 45.16C24.8658 45.2027 24.9512 45.096 24.9085 44.84C24.8658 44.584 24.7592 44.5627 24.5885 44.776V41.256C24.5458 41.256 24.5245 41.192 24.5245 41.064C24.5245 40.936 24.5458 40.8933 24.5885 40.936C24.3752 40.5947 24.3112 40.168 24.3965 39.656C24.4818 39.6133 24.5458 39.5493 24.5885 39.464C24.6738 39.336 24.6525 39.2293 24.5245 39.144C24.4818 39.1013 24.4392 39.144 24.3965 39.272C24.3965 39.4 24.3965 39.4427 24.3965 39.4C24.3965 39.0587 24.4178 38.5467 24.4605 37.864C24.5458 37.1387 24.5885 36.4987 24.5885 35.944C24.5885 35.688 24.5885 35.4533 24.5885 35.24C24.5885 35.0267 24.5458 34.8773 24.4605 34.792L24.9085 34.408C24.9938 34.3227 24.9512 34.28 24.7805 34.28C24.6525 34.2373 24.5458 34.2373 24.4605 34.28L24.5245 33.256C24.6098 33.2987 24.6952 33.32 24.7805 33.32C24.9085 33.32 24.8658 33.2133 24.6525 33C24.4818 32.744 24.5245 32.552 24.7805 32.424L24.5245 31.272C24.7378 31.3147 24.8872 31.336 24.9725 31.336C25.0578 31.2933 24.9298 31.2507 24.5885 31.208L24.8445 28.392L25.0365 28.264V26.472H24.9085L24.9725 25.64L25.1645 25.384L25.3565 24.68L25.1005 24.616L25.5485 23.784C25.3778 23.784 25.2925 23.6987 25.2925 23.528C25.2925 23.3147 25.3352 23.0587 25.4205 22.76C25.5485 22.4613 25.5272 22.248 25.3565 22.12L25.6125 21.096C25.7405 21.096 25.8045 21.0533 25.8045 20.968C25.8045 20.8827 25.7618 20.7973 25.6765 20.712C25.6338 20.584 25.6125 20.4987 25.6125 20.456L25.9965 20.392L25.8045 19.368C25.8045 19.2827 25.8045 19.304 25.8045 19.432C25.8472 19.56 25.8898 19.6027 25.9325 19.56V19.432C25.9325 19.3467 25.9112 19.24 25.8685 19.112C25.8685 18.9413 25.8685 18.7707 25.8685 18.6C25.8685 18.216 26.0178 18.0453 26.3165 18.088L25.9325 17.64C26.1885 17.384 26.3378 17 26.3805 16.488C26.4658 15.9333 26.4658 15.5067 26.3805 15.208H26.7005L26.5085 14.632C26.7218 14.6747 26.8072 14.6107 26.7645 14.44C26.7645 14.2693 26.7005 14.2267 26.5725 14.312C26.5725 13.9707 26.6152 13.6507 26.7005 13.352C26.7858 13.0107 26.8285 12.6907 26.8285 12.392H27.0205L27.1485 10.728L27.5325 10.6L27.4045 9.96C27.4472 10.0027 27.4472 9.98133 27.4045 9.896C27.3618 9.768 27.3405 9.66133 27.3405 9.576C27.3405 9.448 27.4045 9.256 27.5325 9C27.7032 8.70133 27.7885 8.296 27.7885 7.784C28.0018 7.784 28.0872 7.54933 28.0445 7.08C28.0445 6.568 28.1085 6.07733 28.2365 5.608C28.2792 5.608 28.4072 5.52266 28.6205 5.352C28.8338 5.13866 28.7698 4.92533 28.4285 4.712L28.6845 4.072H28.8765C28.9192 3.98666 28.9832 3.816 29.0685 3.56C29.1538 3.26133 29.1752 2.94133 29.1325 2.6L29.3885 2.536C29.3885 2.49333 29.3672 2.42933 29.3245 2.344C29.2818 2.25867 29.2818 2.17333 29.3245 2.088H29.5805L29.7725 1.704L29.6445 1.576L29.8365 1.064L30.2845 0.743999V0.999996L30.3485 0.871998L32.0765 1.064V1.256L31.9485 1.384H32.1405V1.576C32.2258 1.61867 32.3112 1.61867 32.3965 1.576C32.5245 1.53333 32.6098 1.53333 32.6525 1.576V1.832L33.3565 2.088C33.3565 2.13066 33.3138 2.216 33.2285 2.344C33.1432 2.42933 33.1218 2.49333 33.1645 2.536L33.5485 3.112L34.0605 2.984L33.9325 2.92L34.6365 2.984C34.6792 2.984 34.6365 2.96266 34.5085 2.92C34.4232 2.83466 34.3805 2.792 34.3805 2.792L35.5965 2.984L35.5325 3.24C35.7032 3.32533 35.8525 3.47466 35.9805 3.688C36.1512 3.85866 36.3005 3.90133 36.4285 3.816L36.5565 4.648L36.9405 4.776L37.1325 5.288C37.0898 5.24533 37.0258 5.224 36.9405 5.224C36.8978 5.224 36.8765 5.26667 36.8765 5.352C36.8765 5.48 36.9192 5.65067 37.0045 5.864C37.1325 6.07733 37.2178 6.184 37.2605 6.184C37.4738 6.52533 37.6018 6.952 37.6445 7.464C37.6872 7.93333 37.6872 8.33867 37.6445 8.68L37.3245 8.744L37.6445 8.808L37.3885 8.936L37.3245 10.088L37.4525 10.216L37.1325 10.92L37.1965 11.624L37.0045 11.496C36.9618 11.5387 36.9618 11.624 37.0045 11.752C37.0898 11.8373 37.1538 11.88 37.1965 11.88C37.1112 12.0933 36.9405 12.456 36.6845 12.968C36.4712 13.48 36.4285 13.7573 36.5565 13.8L36.3005 14.888L35.9805 14.696C36.0232 15.2507 35.9165 15.784 35.6605 16.296C35.4045 16.7653 35.1912 17.2773 35.0205 17.832C35.0205 17.7893 35.0205 17.832 35.0205 17.96C35.0205 18.0453 34.9992 18.088 34.9565 18.088L34.5725 17.768L34.6365 18.6C34.5512 18.6 34.4232 18.792 34.2525 19.176C34.1245 19.5173 34.0818 19.7093 34.1245 19.752L34.0605 19.88L33.8045 19.944C33.7192 20.1147 33.6552 20.2427 33.6125 20.328C33.5698 20.3707 33.5058 20.4347 33.4205 20.52L33.6125 20.648L32.7165 21.992L32.9085 22.12L32.4605 22.376L31.6925 24.104C31.6498 24.0187 31.6285 24.04 31.6285 24.168C31.6285 24.296 31.6072 24.3813 31.5645 24.424L31.2445 24.36L31.1805 25.128L30.6685 24.936V25.32L30.9885 25.384V25.512L29.6445 26.856L29.7085 27.112L29.8365 26.984V27.176C29.7938 27.304 29.6232 27.5387 29.3245 27.88C29.0685 28.2213 28.8338 28.5627 28.6205 28.904C28.4072 29.2027 28.3005 29.416 28.3005 29.544L27.7885 29.864L27.5325 30.632H27.4685C27.1698 30.632 27.0205 30.7387 27.0205 30.952L27.2125 31.592C27.1272 31.5067 27.0845 31.528 27.0845 31.656C27.0845 31.784 27.1272 31.8053 27.2125 31.72L26.5085 32.936C26.5085 33.0213 26.5725 33.0213 26.7005 32.936C26.8712 32.8507 26.9778 32.8507 27.0205 32.936L26.9565 33.576H26.7005V34.088C26.7858 34.1733 26.8285 34.28 26.8285 34.408C26.8285 34.536 26.7432 34.5787 26.5725 34.536C26.7005 34.664 26.7645 34.856 26.7645 35.112C26.7645 35.368 26.7005 35.6027 26.5725 35.816L26.8285 36.2L26.4445 37.224L26.7005 37.608L26.5725 40.296C26.4445 40.2533 26.3805 40.424 26.3805 40.808C26.3805 41.192 26.4445 41.2347 26.5725 40.936V42.344C26.4018 42.1733 26.3165 42.216 26.3165 42.472C26.3165 42.6853 26.4018 42.728 26.5725 42.6C26.5725 43.0693 26.5725 43.56 26.5725 44.072C26.5725 44.5413 26.6578 45.0107 26.8285 45.48V46.056H26.8925C27.1058 46.056 27.2125 45.8213 27.2125 45.352C27.2125 44.84 27.2125 44.5627 27.2125 44.52L27.3405 44.584C27.5112 44.3707 27.4685 44.264 27.2125 44.264L27.4685 43.56L27.6605 43.688L27.7885 42.856L27.5325 42.792H27.7885C27.8312 42.7067 27.7885 42.6 27.6605 42.472C27.5752 42.344 27.5965 42.2587 27.7245 42.216C28.0658 41.96 28.1298 41.8107 27.9165 41.768C27.7032 41.7253 27.6818 41.6187 27.8525 41.448H28.1725L27.9805 41.32L28.2365 41.256L27.9165 41.192C27.9592 40.7653 28.0658 40.36 28.2365 39.976C28.4498 39.592 28.6418 39.2293 28.8125 38.888L28.6205 38.824L28.7485 37.736C28.7912 37.736 28.8125 37.7573 28.8125 37.8C28.8552 37.8 28.8765 37.8 28.8765 37.8C28.9618 37.8 29.0045 37.7147 29.0045 37.544C29.0045 37.3733 28.9832 37.2027 28.9405 37.032C28.9405 36.8187 29.0258 36.712 29.1965 36.712L29.3245 35.56C29.4952 35.56 29.5805 35.5173 29.5805 35.432C29.5805 35.2613 29.5165 35.0907 29.3885 34.92L29.9005 34.536C30.0712 34.408 30.0712 34.344 29.9005 34.344C29.7298 34.344 29.6658 34.28 29.7085 34.152L30.1565 32.808L30.2205 33C30.2205 32.6587 30.2632 32.3387 30.3485 32.04C30.4765 31.7413 30.5618 31.4213 30.6045 31.08C30.6472 31.1227 30.7112 31.144 30.7965 31.144C30.8392 31.144 30.8178 31.08 30.7325 30.952C30.6472 30.824 30.6898 30.6747 30.8605 30.504C31.0312 30.3333 31.2232 30.184 31.4365 30.056L31.1805 29.48C31.3085 29.48 31.4365 29.3733 31.5645 29.16C31.7352 28.904 31.8632 28.712 31.9485 28.584C32.0765 28.4133 32.1192 28.456 32.0765 28.712V28.2L32.4605 27.752C32.6312 27.8373 32.7378 27.88 32.7805 27.88C32.8658 27.88 32.9298 27.816 32.9725 27.688C33.0152 27.5173 33.0792 27.3893 33.1645 27.304H33.8685C33.8258 27.3467 33.8045 27.3893 33.8045 27.432C33.8045 27.432 33.8045 27.4533 33.8045 27.496C33.8045 27.496 33.8258 27.496 33.8685 27.496C33.9965 27.496 34.2312 27.4107 34.5725 27.24C34.9138 27.0693 35.0845 26.984 35.0845 26.984V27.048L35.4685 27.496C35.3405 27.5387 35.2765 27.6667 35.2765 27.88C35.3192 28.0933 35.3405 28.2853 35.3405 28.456C35.3405 28.4987 35.4045 28.584 35.5325 28.712C35.7032 28.7973 35.8098 28.7973 35.8525 28.712L35.9165 30.12C35.7885 29.9493 35.7032 29.9493 35.6605 30.12C35.6605 30.248 35.6818 30.376 35.7245 30.504C35.8098 30.632 35.8952 30.6107 35.9805 30.44V31.208H35.8525L36.1725 31.272L36.2365 32.04H35.8525C35.7245 32.168 35.7458 32.2533 35.9165 32.296C36.0872 32.296 36.1938 32.2747 36.2365 32.232L36.3005 33L35.9805 33.256C35.9805 33.2987 36.0445 33.32 36.1725 33.32C36.3005 33.2773 36.3432 33.2773 36.3005 33.32C36.2578 33.3627 36.1938 33.384 36.1085 33.384C36.0232 33.384 35.9592 33.384 35.9165 33.384C36.0018 33.4267 36.0658 33.7253 36.1085 34.28C36.1938 34.792 36.2792 35.3893 36.3645 36.072C36.4498 36.7547 36.5138 37.3733 36.5565 37.928C36.5992 38.4827 36.5992 38.824 36.5565 38.952C36.6418 38.9947 36.7058 39.208 36.7485 39.592C36.8338 39.9333 36.8978 40.168 36.9405 40.296C36.8552 40.2533 36.7912 40.232 36.7485 40.232C36.7058 40.1893 36.6632 40.168 36.6205 40.168C36.5778 40.168 36.5565 40.1893 36.5565 40.232C36.5565 40.3173 36.7485 40.5307 37.1325 40.872C37.5165 41.2133 37.7085 41.4053 37.7085 41.448C37.7085 41.4907 37.7298 41.576 37.7725 41.704C37.8578 41.832 37.9005 41.9173 37.9005 41.96L38.6045 41.896H38.7325V42.28C38.8178 42.3227 38.9032 42.3227 38.9885 42.28C39.1165 42.2373 39.1378 42.1307 39.0525 41.96C39.4792 41.7893 39.9485 41.32 40.4605 40.552C40.9725 39.7413 41.2925 39.1227 41.4205 38.696C41.4205 38.7813 41.4632 38.824 41.5485 38.824C41.6338 38.824 41.7192 38.7387 41.8045 38.568C41.9325 38.3973 41.8685 38.2907 41.6125 38.248L42.4445 37.16C42.4872 37.2027 42.5298 37.224 42.5725 37.224C42.6152 37.224 42.6365 37.224 42.6365 37.224C42.7218 37.224 42.7645 37.1813 42.7645 37.096C42.7645 37.0107 42.7218 36.904 42.6365 36.776C42.5938 36.6053 42.5938 36.4987 42.6365 36.456C42.6792 36.3707 42.7218 36.4133 42.7645 36.584C42.8072 36.712 42.8498 36.7547 42.8925 36.712C42.9778 36.6693 42.9778 36.584 42.8925 36.456C42.8498 36.2853 42.8285 36.2 42.8285 36.2L43.2765 36.008L43.4045 35.304L44.2365 34.92L44.3005 35.56C44.1298 35.5173 44.0658 35.6453 44.1085 35.944C44.1512 36.2 44.0658 36.2427 43.8525 36.072C43.8525 36.328 43.8312 36.6053 43.7885 36.904C43.7458 37.16 43.6605 37.3947 43.5325 37.608L43.2765 37.672C43.2338 37.672 43.2125 37.6293 43.2125 37.544C43.2552 37.4587 43.2338 37.4373 43.1485 37.48C43.1485 37.5227 43.1485 37.5867 43.1485 37.672C43.1912 37.7573 43.2125 37.8427 43.2125 37.928C43.2125 38.312 43.0418 38.7813 42.7005 39.336H42.5085L42.4445 40.04L42.1885 39.784V40.488C41.9325 40.36 41.7832 40.36 41.7405 40.488C41.6978 40.616 41.6552 40.7227 41.6125 40.808L41.4845 40.744C41.4418 40.7867 41.5058 40.8293 41.6765 40.872C41.8898 40.9147 41.9965 40.936 41.9965 40.936L40.9085 42.6V42.92C40.9085 42.9627 40.8445 42.984 40.7165 42.984C40.6312 42.984 40.5672 43.0267 40.5245 43.112H40.7165L40.6525 43.176H40.4605L39.8845 44.072L39.8205 43.816L39.6925 44.008L39.7565 44.328L39.3725 44.84L38.9245 44.776C39.0098 45.2027 38.7965 45.48 38.2845 45.608C37.7725 45.736 37.3458 45.8 37.0045 45.8C36.9618 45.7573 36.8552 45.7147 36.6845 45.672C36.5138 45.6293 36.4498 45.7147 36.4925 45.928C36.1938 45.8427 35.8952 45.672 35.5965 45.416C35.3405 45.1173 35.1272 44.8613 34.9565 44.648L35.2125 44.264H34.8925L34.7645 43.56L34.4445 43.432C34.4445 43.3467 34.4445 43.2827 34.4445 43.24C34.4872 43.1547 34.5085 43.0907 34.5085 43.048C34.5085 42.7493 34.4445 42.472 34.3165 42.216C34.2312 41.9173 34.1458 41.6613 34.0605 41.448L33.8045 41.32L34.0605 41.256C34.1032 41.256 34.0818 41.2133 33.9965 41.128C33.9112 41 33.8898 40.936 33.9325 40.936C33.6765 40.7227 33.5485 40.4027 33.5485 39.976V39.144C33.5485 38.76 33.4845 38.5253 33.3565 38.44L33.6125 37.736L33.3565 37.928L33.2285 37.672L33.1645 37.864L33.1005 37.16L33.2285 37.032L33.1005 36.968L33.2285 36.776L33.1005 36.712L33.2285 36.52H32.9725L32.6525 34.408L32.9085 34.344L32.6525 34.216H33.1005L32.9725 34.152L32.5885 33.768V33.128C32.5885 33 32.5458 32.8933 32.4605 32.808C32.4178 32.68 32.2472 32.5733 31.9485 32.488C31.8632 32.5307 31.7992 32.616 31.7565 32.744C31.7138 32.872 31.7352 32.936 31.8205 32.936L31.4365 33.384L31.5005 33.704C31.3298 34.1733 31.1378 34.664 30.9245 35.176C30.7538 35.6453 30.6045 36.1147 30.4765 36.584H30.3485V36.264L30.1565 36.456L30.4765 36.712L30.0285 37.544C30.1565 37.544 30.1992 37.5653 30.1565 37.608L29.8365 37.672L30.0925 37.736H30.1565L30.0925 38.056C29.7938 38.4827 29.6232 38.9307 29.5805 39.4C29.5378 39.8693 29.4738 40.3813 29.3885 40.936H29.1325V42.216C29.0898 42.216 29.0472 42.216 29.0045 42.216C29.0045 42.1733 29.0045 42.152 29.0045 42.152C28.8765 42.152 28.8125 42.2373 28.8125 42.408C28.8552 42.5787 28.8765 42.7067 28.8765 42.792L28.8125 42.728V44.072H28.4285L28.6845 44.584C28.6418 44.712 28.5352 44.84 28.3645 44.968C28.2365 45.096 28.3218 45.2667 28.6205 45.48C28.4498 45.8213 28.3432 46.1413 28.3005 46.44C28.3005 46.7387 28.3218 46.9093 28.3645 46.952L28.1725 47.848H27.8525C27.8098 47.8907 27.8525 47.912 27.9805 47.912C28.1512 47.8693 28.2152 47.8907 28.1725 47.976L27.9165 48.616C28.0018 48.616 28.0445 48.7653 28.0445 49.064C28.0445 49.32 28.0232 49.5973 27.9805 49.896C27.9378 50.2373 27.9165 50.4507 27.9165 50.536L27.5325 50.792L27.7245 50.856C27.7245 50.8987 27.6818 50.92 27.5965 50.92C27.5112 50.92 27.4898 50.92 27.5325 50.92H27.9165ZM27.6605 28.008L27.7245 28.264V28.2C27.8098 27.9867 27.9805 27.752 28.2365 27.496C28.4925 27.1973 28.5778 26.9413 28.4925 26.728L28.8765 26.664L29.0685 26.472L28.8125 26.216C28.8125 26.1733 28.8338 26.152 28.8765 26.152C29.0898 26.152 29.2605 26.216 29.3885 26.344V26.216L29.0685 25.896L29.3885 25.32C29.4738 25.2773 29.5378 25.2987 29.5805 25.384C29.6232 25.4267 29.6445 25.4693 29.6445 25.512L29.8365 25.384C29.7938 25.2987 29.7725 25.1707 29.7725 25C29.7725 24.7867 29.8578 24.68 30.0285 24.68C30.0285 24.424 30.0498 24.2533 30.0925 24.168L30.3485 24.232L30.2845 23.72L30.6045 23.656L30.3485 23.464C30.5618 23.4213 30.6685 23.2507 30.6685 22.952C30.7112 22.6533 30.8178 22.4827 30.9885 22.44C31.1592 22.44 31.2445 22.4613 31.2445 22.504L30.9885 22.888H31.2445L31.5005 22.504V22.44L31.1805 22.248V21.928L31.6285 21.992L31.5005 21.48C31.7138 20.968 31.9272 20.584 32.1405 20.328C32.3965 20.0293 32.5458 19.6453 32.5885 19.176L32.7165 18.984L32.9725 19.048L32.9085 18.6L32.9725 18.664V18.6C32.9725 18.344 33.0578 18.1093 33.2285 17.896C33.4418 17.6827 33.5912 17.4907 33.6765 17.32C33.7618 17.2347 33.7832 17.0853 33.7405 16.872C33.7405 16.6587 33.8045 16.5093 33.9325 16.424H34.0605V16.296H34.3805C34.4232 16.0827 34.3805 16.0187 34.2525 16.104C34.1245 16.1467 34.0178 16.168 33.9325 16.168C33.9325 16.0827 34.0178 15.912 34.1885 15.656C34.3592 15.4 34.4658 15.2507 34.5085 15.208H34.6365L34.3805 14.824C34.6365 14.7387 34.7858 14.5253 34.8285 14.184C34.8712 13.8 34.9992 13.5227 35.2125 13.352L34.9565 13.288C35.0845 13.0747 35.1912 12.6907 35.2765 12.136C35.4045 11.5387 35.4685 11.1333 35.4685 10.92C35.5538 10.9627 35.6178 10.9413 35.6605 10.856C35.7032 10.728 35.7245 10.6427 35.7245 10.6L35.5325 10.664C35.5325 10.6213 35.5325 10.5573 35.5325 10.472C35.5325 10.344 35.5538 10.2587 35.5965 10.216L35.8525 10.152H35.5965V9.64L35.9165 9.512L35.7245 9.448V8.808L35.8525 8.68C35.7245 8.46666 35.6392 8.25333 35.5965 8.04C35.5965 7.784 35.5965 7.528 35.5965 7.272H35.8525L35.9165 6.888L35.5965 6.76C35.8098 6.76 35.8525 6.65333 35.7245 6.44H35.4045C35.3618 5.88533 35.2125 5.50133 34.9565 5.288C34.7005 5.032 34.4872 4.69066 34.3165 4.264H34.1245L34.0605 3.88H33.5485C33.5058 4.17867 33.3565 4.456 33.1005 4.712L33.2285 4.776C33.0578 5.07467 32.9298 5.416 32.8445 5.8C32.7592 6.14133 32.5245 6.44 32.1405 6.696H32.2045L32.5245 7.144L32.4605 7.4L32.2045 7.336V7.656C32.2045 7.95466 32.1192 8.18933 31.9485 8.36L31.8205 8.232C31.8205 8.40267 31.7992 8.59467 31.7565 8.808C31.7565 8.97867 31.7778 9.17067 31.8205 9.384H31.5645V9.128C31.5645 9.128 31.6072 9.14933 31.6925 9.192C31.8205 9.192 31.8205 9.14933 31.6925 9.064L31.3085 9.192L31.5645 9.576H31.6285L31.8205 9.384V9.512L31.1805 10.344C31.2658 10.472 31.3298 10.5787 31.3725 10.664C31.4152 10.7493 31.3938 10.8987 31.3085 11.112H31.2445L31.1805 10.856L31.1165 11.368L30.6685 11.432L31.1165 11.688L30.9885 12.328C30.9458 12.3707 30.8818 12.3707 30.7965 12.328C30.7538 12.2853 30.7112 12.264 30.6685 12.264C30.6258 12.264 30.6258 12.3067 30.6685 12.392C30.7538 12.4773 30.8178 12.5413 30.8605 12.584C30.7752 12.9253 30.6685 13.288 30.5405 13.672C30.4125 14.056 30.3485 14.44 30.3485 14.824H30.0925C30.0925 14.9947 30.0712 15.2293 30.0285 15.528C30.0285 15.8267 29.9858 16.0827 29.9005 16.296L29.6445 16.168V16.296H29.8365L29.7725 17.064L29.2605 17.192C29.3458 17.2347 29.4312 17.2773 29.5165 17.32C29.6018 17.32 29.6658 17.32 29.7085 17.32L29.5805 17.704H29.5165L29.3885 17.512L29.3245 17.832L29.5805 17.96C29.4098 18.216 29.3245 18.4933 29.3245 18.792C29.3245 19.0907 29.2605 19.368 29.1325 19.624L28.8765 19.496L28.8125 19.944L29.0685 20.136L28.8765 20.776L28.6205 20.968C28.7058 20.9253 28.7698 20.9253 28.8125 20.968C28.8978 21.0107 28.9192 21.0747 28.8765 21.16C28.7058 21.288 28.6418 21.4373 28.6845 21.608C28.7272 21.7787 28.7058 21.9067 28.6205 21.992L27.9805 22.248V22.44L28.6205 22.568L28.3645 23.464L27.9805 23.656L28.1085 23.848H28.3645V23.976C28.1512 24.1467 28.0232 24.5307 27.9805 25.128C27.9805 25.6827 27.9378 26.1307 27.8525 26.472L27.7245 26.664L27.7885 26.856C27.7458 27.0267 27.7245 27.1973 27.7245 27.368C27.7245 27.496 27.7245 27.624 27.7245 27.752L27.4685 28.072C27.5112 28.072 27.5538 28.072 27.5965 28.072C27.6392 28.0293 27.6605 28.008 27.6605 28.008ZM53.2615 49.128L50.6375 49.256L50.5095 48.872C50.4668 48.8293 50.4028 48.808 50.3175 48.808C50.1468 48.808 49.9122 48.8507 49.6135 48.936C49.3148 49.0213 49.0588 49.0427 48.8455 49C48.2055 48.8293 47.4588 48.552 46.6055 48.168C45.7948 47.7413 45.1548 47.3147 44.6855 46.888C44.5148 46.76 44.4082 46.5893 44.3655 46.376C44.3655 46.12 44.3015 45.9067 44.1735 45.736C43.9175 45.4373 43.6828 45.2453 43.4695 45.16C43.2562 45.0747 43.1068 44.7973 43.0215 44.328L43.1495 44.072H42.7655C42.7228 44.2 42.7015 44.264 42.7015 44.264C42.7442 44.2213 42.6802 44.2427 42.5095 44.328C42.5095 44.072 42.4028 43.752 42.1895 43.368C41.9762 42.984 41.8268 42.6427 41.7415 42.344C41.9122 42.2587 42.0402 42.1733 42.1255 42.088C41.9975 42.0027 41.8908 41.9173 41.8055 41.832C41.7628 41.704 41.6988 41.576 41.6135 41.448L41.3575 41.704V40.936C41.5282 40.936 41.5922 40.8933 41.5495 40.808C41.5495 40.7227 41.5708 40.5947 41.6135 40.424H41.4855V40.808H41.1015C41.0588 40.5093 40.9948 40.104 40.9095 39.592C40.8668 39.0373 40.8455 38.5467 40.8455 38.12C40.8455 37.7787 40.8882 37.5227 40.9735 37.352L41.1015 37.736V37.096C40.8882 37.0533 40.7815 36.8827 40.7815 36.584C40.7815 36.456 40.7815 36.3493 40.7815 36.264C40.8242 36.136 40.8455 36.0507 40.8455 36.008C41.0588 35.7947 41.1442 35.5173 41.1015 35.176C41.1015 34.8347 41.1442 34.5147 41.2295 34.216C41.4002 34.2587 41.4642 34.3013 41.4215 34.344C41.4215 34.344 41.4855 34.2587 41.6135 34.088L41.2295 33.96C41.3575 33.7467 41.4428 33.512 41.4855 33.256C41.5282 32.9573 41.5708 32.68 41.6135 32.424L40.8455 32.296C40.8882 32.0827 40.8882 31.8693 40.8455 31.656C40.8455 31.4 40.8455 31.1867 40.8455 31.016C41.0588 30.888 41.1655 30.7813 41.1655 30.696C41.1655 30.568 41.3148 30.4613 41.6135 30.376C41.6988 30.3333 41.8055 30.312 41.9335 30.312C42.0188 30.312 42.1042 30.3333 42.1895 30.376C42.2748 30.376 42.3815 30.376 42.5095 30.376C42.7228 29.864 42.9575 29.3733 43.2135 28.904C43.4695 28.4347 43.7042 27.9653 43.9175 27.496C44.0028 27.5387 44.0455 27.5813 44.0455 27.624C44.0882 27.624 44.1308 27.5813 44.1735 27.496C44.5575 27.4107 44.7282 27.1973 44.6855 26.856C44.6855 26.472 44.7708 26.1733 44.9415 25.96C45.1122 25.7467 45.2828 25.5547 45.4535 25.384C45.6668 25.1707 45.8588 24.9787 46.0295 24.808H46.5415V24.68C46.4988 24.5947 46.5628 24.3813 46.7335 24.04C46.9468 23.6987 47.0962 23.5067 47.1815 23.464C47.2668 23.3787 47.3522 23.3573 47.4375 23.4C47.5228 23.4 47.6082 23.3787 47.6935 23.336C48.0775 22.7387 48.5042 22.2907 48.9735 21.992C49.4428 21.6933 50.0402 21.5867 50.7655 21.672C50.7228 21.5867 50.7015 21.4587 50.7015 21.288C50.7015 20.9893 50.8295 20.8827 51.0855 20.968C51.3415 21.0533 51.5762 21.0747 51.7895 21.032L52.2375 20.648L52.4935 20.584C52.6642 20.584 52.8135 20.6267 52.9415 20.712C53.1122 20.7547 53.2828 20.776 53.4535 20.776C53.6668 20.776 53.8162 20.7333 53.9015 20.648C53.9868 20.52 54.1148 20.4347 54.2855 20.392C54.3708 20.392 54.5842 20.456 54.9255 20.584C55.3095 20.6693 55.5655 20.7333 55.6935 20.776C55.8642 20.8613 56.0135 20.904 56.1415 20.904H56.2055L56.3335 20.776V21.032H57.4855C57.6562 21.032 57.9122 21.1387 58.2535 21.352C58.6375 21.5653 58.9788 21.8213 59.2775 22.12C59.5762 22.376 59.7255 22.6107 59.7255 22.824C59.7255 23.08 59.4908 23.208 59.0215 23.208C58.3388 22.6107 57.5922 22.3547 56.7815 22.44C56.0135 22.5253 55.2242 22.4827 54.4135 22.312C54.3708 22.5253 54.2428 22.632 54.0295 22.632C53.8162 22.632 53.6242 22.6107 53.4535 22.568C53.1122 22.824 52.7282 23.08 52.3015 23.336C51.9175 23.5493 51.5335 23.7627 51.1495 23.976C51.1068 23.7627 51.0855 23.6773 51.0855 23.72C51.1282 23.72 51.0642 23.6773 50.8935 23.592C50.7655 24.232 50.4455 24.7867 49.9335 25.256C49.4642 25.6827 48.9735 26.1093 48.4615 26.536C47.9922 26.9627 47.6935 27.496 47.5655 28.136C47.7362 28.0933 47.8002 28.072 47.7575 28.072C47.7575 28.0293 47.8002 28.0933 47.8855 28.264H47.7575L47.8855 28.392C48.0988 28.1787 48.3122 27.9867 48.5255 27.816C48.7815 27.6453 49.0588 27.5387 49.3575 27.496C49.4855 27.752 49.6348 27.88 49.8055 27.88C50.1042 27.88 50.3388 27.624 50.5095 27.112C50.7228 27.112 50.8295 27.112 50.8295 27.112C50.8722 27.0693 50.9788 27.112 51.1495 27.24V26.856C51.4055 26.8987 51.5975 26.9413 51.7255 26.984C51.8535 27.0267 52.0668 27.0267 52.3655 26.984L52.4935 26.344C53.0055 26.344 53.4748 26.2587 53.9015 26.088C54.3282 25.9173 54.7548 25.704 55.1815 25.448V25.832H55.8215L56.0775 25.064C56.4615 25.0213 56.9095 24.8933 57.4215 24.68C57.9762 24.4667 58.4028 24.3813 58.7015 24.424C58.7868 24.424 58.9575 24.36 59.2135 24.232C59.5122 24.104 59.5762 23.976 59.4055 23.848C59.8322 23.6773 60.2588 23.6133 60.6855 23.656C61.1548 23.6987 61.5602 23.6347 61.9015 23.464L62.2855 22.952C62.4562 22.952 62.6268 22.9947 62.7975 23.08C62.8828 22.9947 62.9255 22.9093 62.9255 22.824C62.9682 22.7387 63.0108 22.6533 63.0535 22.568C63.1388 22.4827 63.4162 22.44 63.8855 22.44C64.1415 22.44 64.3975 22.44 64.6535 22.44C64.9522 22.3973 65.1868 22.3547 65.3575 22.312V22.056L65.7415 22.312V21.928C65.9548 21.7573 66.1895 21.672 66.4455 21.672C66.7015 21.6293 66.9148 21.544 67.0855 21.416L67.3415 21.544C67.7682 21.3733 68.2162 21.288 68.6855 21.288C69.1548 21.288 69.6028 21.2027 70.0295 21.032C70.2855 21.16 70.4562 21.2667 70.5415 21.352C70.6695 21.4373 70.8828 21.5013 71.1815 21.544C71.1815 21.3733 71.1815 21.3093 71.1815 21.352C71.1815 21.3947 71.2242 21.3307 71.3095 21.16C71.3948 21.2027 71.4802 21.2453 71.5655 21.288C71.6935 21.3307 71.7788 21.3733 71.8215 21.416V20.904C71.9922 20.904 72.1628 20.9467 72.3335 21.032V21.16C72.2908 21.16 72.2268 21.16 72.1415 21.16C72.0988 21.1173 72.0348 21.1173 71.9495 21.16C72.0775 21.2453 72.1202 21.3093 72.0775 21.352C72.0775 21.352 72.1628 21.3733 72.3335 21.416C72.5468 21.2027 72.7602 21.0747 72.9735 21.032C73.2295 20.9467 73.5068 20.904 73.8055 20.904C73.9762 20.9893 74.1468 21.032 74.3175 21.032C74.5308 20.9893 74.7868 21.0747 75.0855 21.288L75.3415 21.032C75.6828 21.2453 75.9815 21.416 76.2375 21.544C76.5362 21.6293 76.8775 21.7147 77.2615 21.8C77.4748 22.0987 77.6028 22.3333 77.6455 22.504C77.7308 22.6747 77.7735 22.952 77.7735 23.336L77.3895 23.464C77.1335 23.5493 76.8135 23.592 76.4295 23.592C76.1308 23.592 75.8322 23.5707 75.5335 23.528C75.2775 23.4427 75.0855 23.336 74.9575 23.208C74.9148 23.1653 74.8722 23.1013 74.8295 23.016C74.8295 22.9307 74.7868 22.8667 74.7015 22.824C74.5735 22.9947 74.3815 23.08 74.1255 23.08C73.9122 23.08 73.6562 23.0373 73.3575 22.952C73.1015 22.824 72.8668 22.7387 72.6535 22.696C71.7575 22.696 70.8615 22.7387 69.9655 22.824C69.0695 22.8667 68.1948 22.9947 67.3415 23.208C67.0428 23.2933 66.5948 23.336 65.9975 23.336C65.4002 23.336 65.0588 23.336 64.9735 23.336C64.8882 23.3787 64.6962 23.5067 64.3975 23.72C64.1415 23.9333 63.9922 24.0827 63.9495 24.168C64.3335 24.3813 64.8455 24.488 65.4855 24.488C66.1682 24.488 66.7442 24.5947 67.2135 24.808C67.2135 24.8933 67.1922 24.936 67.1495 24.936C67.1495 24.936 67.2135 24.9787 67.3415 25.064C67.4268 24.9787 67.5548 24.936 67.7255 24.936C67.9388 24.936 68.1522 24.9787 68.3655 25.064C68.5788 25.1493 68.7495 25.2347 68.8775 25.32C68.9628 25.4907 69.1122 25.7467 69.3255 26.088C69.5388 26.3867 69.7735 26.5573 70.0295 26.6V26.472C70.2855 26.728 70.4775 27.112 70.6055 27.624C70.7335 28.136 70.7975 28.6907 70.7975 29.288C70.7975 30.2267 70.6908 31.1653 70.4775 32.104C70.2642 33.0427 69.9868 33.704 69.6455 34.088L69.1335 34.216C69.1335 34.2587 69.1122 34.3013 69.0695 34.344C69.0695 34.344 69.0695 34.3653 69.0695 34.408C69.0695 34.4933 69.0908 34.6 69.1335 34.728C69.1762 34.8133 69.2188 34.8987 69.2615 34.984C69.1762 35.2827 69.0055 35.5813 68.7495 35.88C68.5362 36.136 68.3228 36.3707 68.1095 36.584C68.1948 36.584 68.2375 36.6267 68.2375 36.712C67.8962 37.4373 67.4482 38.12 66.8935 38.76C66.3388 39.3573 65.8268 39.9973 65.3575 40.68C65.3148 40.7653 65.1655 41 64.9095 41.384C64.6962 41.768 64.5255 41.8747 64.3975 41.704C64.1415 42.088 63.8642 42.4933 63.5655 42.92C63.3095 43.3467 62.9682 43.6453 62.5415 43.816C62.4988 43.6453 62.4135 43.5173 62.2855 43.432V43.688L62.1575 43.816L62.5415 43.944C62.2855 43.944 62.1148 43.9867 62.0295 44.072C62.1148 44.072 62.1575 44.1147 62.1575 44.2C61.9868 44.456 61.6668 44.7973 61.1975 45.224C60.7282 45.608 60.2375 45.9707 59.7255 46.312C59.2562 46.6107 58.8722 46.8027 58.5735 46.888C58.5308 46.7173 58.5095 46.6533 58.5095 46.696C58.5522 46.696 58.4882 46.6747 58.3175 46.632C58.3175 47.016 58.0828 47.336 57.6135 47.592C57.1868 47.8053 56.6962 47.976 56.1415 48.104C55.6295 48.232 55.2242 48.3387 54.9255 48.424L53.2615 49.128ZM47.4375 47.144C47.4375 46.9307 47.4375 46.824 47.4375 46.824C47.4375 46.7813 47.5228 46.7173 47.6935 46.632C47.9922 46.8027 48.5042 46.9307 49.2295 47.016C49.9975 47.0587 50.5522 47.0587 50.8935 47.016C50.9362 46.9307 50.9575 46.8667 50.9575 46.824C50.9575 46.7387 50.9788 46.6747 51.0215 46.632C51.0642 46.6747 51.1068 46.7387 51.1495 46.824C51.1922 46.9093 51.2348 46.9733 51.2775 47.016C51.7042 46.504 52.2802 46.2907 53.0055 46.376C52.9628 46.2053 52.9628 46.0347 53.0055 45.864C53.0908 45.864 53.1762 45.864 53.2615 45.864C53.3895 45.8213 53.4962 45.8213 53.5815 45.864C53.5815 45.6507 53.7522 45.5013 54.0935 45.416C54.4775 45.288 54.7548 45.224 54.9255 45.224V44.84H55.9495V44.328C56.4615 44.2427 56.7388 44.136 56.7815 44.008C56.8668 43.8373 56.9522 43.6667 57.0375 43.496C57.1228 43.3253 57.4002 43.2187 57.8695 43.176C57.8695 43.0053 57.9122 42.8773 57.9975 42.792H58.1255C58.2962 42.792 58.4455 42.7493 58.5735 42.664C58.7442 42.536 58.8722 42.4293 58.9575 42.344C59.0428 42.216 59.0428 42.1733 58.9575 42.216C58.8722 42.216 58.8722 42.1307 58.9575 41.96C59.0002 41.8747 59.0642 41.832 59.1495 41.832C59.2775 41.7893 59.3628 41.7467 59.4055 41.704C59.5335 41.6187 59.6188 41.4693 59.6615 41.256C59.7468 41.0427 59.8322 40.8507 59.9175 40.68L60.2375 40.808C60.4082 40.2533 60.5362 39.9547 60.6215 39.912C60.7495 39.8267 60.8562 39.8053 60.9415 39.848C61.0695 39.848 61.1762 39.6987 61.2615 39.4C61.2615 39.4 61.3042 39.4853 61.3895 39.656L61.6455 39.784V39.656C61.6455 39.016 61.8802 38.4613 62.3495 37.992C62.8188 37.48 63.2242 37.0107 63.5655 36.584C63.6508 36.4987 63.7788 36.2427 63.9495 35.816C64.1628 35.3893 64.3548 35.2827 64.5255 35.496C64.5682 35.4107 64.5895 35.304 64.5895 35.176L64.5255 34.728C64.5255 34.5147 64.7175 34.3867 65.1015 34.344C65.1868 34.5147 65.2082 34.5787 65.1655 34.536C65.1655 34.4933 65.2295 34.5147 65.3575 34.6V34.344C65.4428 34.2587 65.5068 34.1733 65.5495 34.088C65.5922 33.96 65.5708 33.8747 65.4855 33.832V33.576L65.2295 33.832V33.32C65.3148 33.2773 65.3575 33.192 65.3575 33.064C65.4855 33.1067 65.5495 33.1493 65.5495 33.192C65.5495 33.192 65.5708 33.1493 65.6135 33.064C65.9122 32.8933 66.0615 32.5733 66.0615 32.104C66.1042 31.592 66.1255 31.1867 66.1255 30.888L66.4455 31.016V30.888C66.3602 30.8027 66.3175 30.6533 66.3175 30.44C66.3175 30.184 66.3602 29.8853 66.4455 29.544C66.6162 29.544 66.7442 29.5013 66.8295 29.416C66.6588 29.288 66.5735 29.16 66.5735 29.032C66.5735 28.8613 66.5948 28.712 66.6375 28.584C66.7228 28.456 66.7442 28.3493 66.7015 28.264C66.4455 27.8373 66.2535 27.4533 66.1255 27.112C65.9975 26.7707 65.6988 26.472 65.2295 26.216V25.704C65.0162 25.704 64.7815 25.6827 64.5255 25.64C64.3122 25.5547 64.0775 25.4907 63.8215 25.448C63.8215 25.3627 63.7788 25.2347 63.6935 25.064C63.6508 25.1067 63.5015 25.1493 63.2455 25.192C63.0322 25.192 62.7548 25.192 62.4135 25.192C61.9868 25.192 61.5388 25.192 61.0695 25.192C60.6428 25.1493 60.3655 25.1067 60.2375 25.064V25.576C59.7682 25.576 59.2348 25.704 58.6375 25.96C58.0402 26.1733 57.4642 26.3867 56.9095 26.6C56.3975 26.8133 55.9495 26.856 55.5655 26.728C55.1388 27.1973 54.7548 27.4747 54.4135 27.56C54.1148 27.6453 53.8162 27.688 53.5175 27.688C53.2615 27.6453 52.9202 27.752 52.4935 28.008L52.3655 28.392C52.3228 28.4347 52.0242 28.584 51.4695 28.84C50.9575 29.0533 50.3602 29.3093 49.6775 29.608C48.9948 29.9067 48.3762 30.184 47.8215 30.44C47.2668 30.6533 46.9255 30.8027 46.7975 30.888C46.6268 30.9307 46.4135 30.952 46.1575 30.952C45.9442 30.952 45.7948 31.016 45.7095 31.144C45.5388 31.912 45.3042 32.68 45.0055 33.448C44.7495 34.216 44.5148 34.984 44.3015 35.752C44.2588 36.008 44.1948 36.4987 44.1095 37.224C44.0668 37.9067 43.9602 38.3333 43.7895 38.504C43.7468 38.7173 43.7682 39.1227 43.8535 39.72C43.9815 40.3173 44.0028 40.808 43.9175 41.192L44.0455 41.064C44.1308 40.9787 44.1735 41 44.1735 41.128C44.1735 41.2133 44.1735 41.2773 44.1735 41.32C44.0882 41.4053 44.1095 41.6827 44.2375 42.152C44.4082 42.5787 44.5575 43.0267 44.6855 43.496C44.8562 43.9653 44.8562 44.264 44.6855 44.392L45.0695 44.584C45.1548 44.7547 45.1548 44.84 45.0695 44.84C44.9842 44.84 45.0268 44.8827 45.1975 44.968C45.2828 44.5413 45.3255 44.4987 45.3255 44.84C45.6668 45.096 45.9655 45.3947 46.2215 45.736C46.5202 46.0347 46.8828 46.2907 47.3095 46.504C47.0962 46.7173 46.9682 46.888 46.9255 47.016C47.0108 47.0587 47.0962 47.08 47.1815 47.08C47.2668 47.08 47.3522 47.1013 47.4375 47.144ZM77.129 53.032C76.873 52.5627 76.489 52.1573 75.977 51.816C75.5077 51.5173 75.1237 51.0267 74.825 50.344C74.697 50.0453 74.569 49.448 74.441 48.552C74.313 47.6133 74.249 46.7813 74.249 46.056C74.249 45.416 74.313 45.0107 74.441 44.84C74.313 44.7547 74.2277 44.6267 74.185 44.456C74.185 44.2427 74.185 44.072 74.185 43.944L74.825 43.56C74.5263 43.5173 74.3343 43.4107 74.249 43.24C74.1637 43.0267 74.121 42.8133 74.121 42.6C74.121 42.3867 74.121 42.1947 74.121 42.024C74.1637 41.8533 74.185 41.6827 74.185 41.512C74.3557 41.2133 74.441 40.9787 74.441 40.808C74.441 40.5947 74.377 40.424 74.249 40.296C74.121 40.168 74.057 39.9547 74.057 39.656C74.057 39.528 74.0997 39.2933 74.185 38.952L74.441 38.824C74.1423 38.5253 74.057 38.184 74.185 37.8C74.3557 37.9707 74.441 37.9707 74.441 37.8C74.441 37.5867 74.441 37.4587 74.441 37.416C74.3983 37.3733 74.3557 37.032 74.313 36.392C74.313 35.752 74.313 35.0267 74.313 34.216C74.313 33.3627 74.313 32.616 74.313 31.976C74.313 31.2933 74.313 30.9307 74.313 30.888C74.3557 30.76 74.4623 30.44 74.633 29.928C74.8463 29.416 74.7823 29.1387 74.441 29.096L74.697 28.2L74.441 27.688L74.953 27.432C75.0383 27.3467 75.081 27.2187 75.081 27.048C74.7823 26.4507 74.5903 25.96 74.505 25.576C74.4623 25.192 74.441 24.6587 74.441 23.976C74.6117 23.976 74.697 23.784 74.697 23.4C74.697 23.1013 74.569 22.952 74.313 22.952L74.441 22.312C74.0143 22.2693 73.5663 22.2267 73.097 22.184C72.6277 22.0987 72.2223 21.928 71.881 21.672H72.521C72.7343 21.16 73.0757 20.904 73.545 20.904C73.7157 20.904 73.929 20.9467 74.185 21.032L74.313 20.648C74.3983 20.6053 74.4837 20.584 74.569 20.584C74.6543 20.5413 74.7397 20.52 74.825 20.52C75.0383 20.52 75.2517 20.584 75.465 20.712C75.721 20.7973 75.9343 20.904 76.105 21.032L76.233 20.648C76.361 20.8613 76.553 20.9893 76.809 21.032C77.065 21.0747 77.2997 21.0747 77.513 21.032L78.025 21.928C78.1103 21.8427 78.2383 21.672 78.409 21.416V21.672C78.7503 22.0133 78.921 22.3973 78.921 22.824C78.7503 22.952 78.665 23.08 78.665 23.208C78.665 23.336 78.6863 23.464 78.729 23.592C78.8143 23.72 78.857 23.8693 78.857 24.04C78.857 24.296 78.7503 24.488 78.537 24.616L78.665 24.872L78.281 25.128L78.537 25.64C78.4943 25.896 78.3663 26.1307 78.153 26.344C77.9823 26.5573 77.8543 26.792 77.769 27.048L78.281 27.176L78.025 28.072L77.513 28.328L77.769 29.608L77.385 29.992H77.769V30.504L77.257 30.76C77.4703 30.9307 77.5557 31.1227 77.513 31.336C77.513 31.5067 77.513 31.6987 77.513 31.912C77.385 31.9547 77.2783 31.9333 77.193 31.848C77.1503 31.7627 77.0863 31.7413 77.001 31.784C77.1717 32.1253 77.257 32.5093 77.257 32.936C77.257 33.3627 77.193 33.768 77.065 34.152C76.937 34.536 76.8303 34.9413 76.745 35.368L76.873 35.24L77.001 35.496L77.129 36.52C76.9583 36.5627 76.8303 36.648 76.745 36.776C76.7023 36.904 76.6597 37.032 76.617 37.16L76.873 37.416C76.617 37.8427 76.6597 38.1413 77.001 38.312C77.0437 38.3973 77.065 38.504 77.065 38.632C77.065 38.9733 76.9157 39.2507 76.617 39.464C76.6597 39.7627 76.7023 40.1253 76.745 40.552C76.8303 40.9787 76.873 41.384 76.873 41.768C76.873 41.9387 76.873 42.1093 76.873 42.28C76.873 42.4507 76.8303 42.6213 76.745 42.792C76.873 42.92 76.937 43.0907 76.937 43.304C76.9797 43.4747 77.001 43.6453 77.001 43.816H77.129V43.048C77.2143 43.176 77.2783 43.24 77.321 43.24C77.3637 43.24 77.385 43.1973 77.385 43.112C77.385 43.0267 77.3637 42.8987 77.321 42.728C77.2783 42.5573 77.257 42.4507 77.257 42.408C77.3423 42.3227 77.4277 42.3227 77.513 42.408C77.5983 42.4933 77.641 42.5787 77.641 42.664C77.8117 41.4693 77.9397 40.232 78.025 38.952L78.409 38.696C78.3237 38.5253 78.281 38.3973 78.281 38.312C78.281 38.0987 78.3663 37.8853 78.537 37.672C78.7503 37.4587 78.8783 37.2453 78.921 37.032V36.904C78.921 36.6053 79.049 36.4347 79.305 36.392C79.2623 36.2213 79.2197 36.0507 79.177 35.88C79.177 35.7093 79.177 35.5387 79.177 35.368C79.177 34.7707 79.2623 34.3013 79.433 33.96L79.945 33.704L79.689 32.936L79.945 31.912L80.201 32.04V31.912C80.1157 31.7413 80.073 31.6133 80.073 31.528C80.073 31.272 80.137 30.9947 80.265 30.696C80.4357 30.3973 80.585 30.1627 80.713 29.992L80.457 29.864C80.7557 29.8213 80.9477 29.544 81.033 29.032C81.1183 28.4773 81.161 27.9013 81.161 27.304C81.2037 26.664 81.3103 26.1947 81.481 25.896C81.6517 25.5973 81.801 25.4267 81.929 25.384C82.057 25.3413 82.1423 25.256 82.185 25.128C82.2703 25 82.2917 24.6587 82.249 24.104C83.1023 23.464 83.785 23.144 84.297 23.144C84.937 23.144 85.4063 23.4853 85.705 24.168C86.0463 24.8507 86.2597 25.6827 86.345 26.664C86.473 27.6027 86.5583 28.52 86.601 29.416C86.6437 30.312 86.6863 30.9733 86.729 31.4L86.345 32.296L86.857 32.68V34.344H87.113L86.985 34.984C87.241 35.3253 87.369 35.6027 87.369 35.816C87.369 35.9013 87.3477 36.008 87.305 36.136C87.305 36.264 87.2837 36.4347 87.241 36.648C87.7957 37.3307 88.073 37.928 88.073 38.44C88.073 38.568 88.073 38.696 88.073 38.824C88.073 38.952 88.0517 39.08 88.009 39.208L88.649 39.464L89.289 40.616L89.033 41.256H89.161L89.545 41C89.673 41.384 89.929 41.7253 90.313 42.024C90.6543 41.9387 91.081 41.8533 91.593 41.768C92.105 41.6827 92.361 41.4267 92.361 41V40.872L93.001 40.488L92.873 39.976L93.385 39.208L93.769 39.464H93.897L93.769 38.952L94.025 38.568C93.9397 38.4827 93.9823 38.2907 94.153 37.992C94.3663 37.6507 94.601 37.3307 94.857 37.032C95.113 36.6907 95.2623 36.4773 95.305 36.392L95.689 36.264C95.689 35.7947 95.7743 35.4107 95.945 35.112H96.009C96.3503 35.112 96.521 35.2827 96.521 35.624C96.521 35.7947 96.4783 36.008 96.393 36.264C96.3503 36.4773 96.2863 36.648 96.201 36.776L95.689 36.904L96.073 37.032L95.561 38.056L95.049 37.8C95.0917 38.6107 94.985 39.2293 94.729 39.656C94.473 40.0827 94.217 40.4667 93.961 40.808C93.705 41.1067 93.5983 41.512 93.641 42.024H93.257L92.361 43.304L91.977 43.048L91.337 43.688L91.209 43.304C91.081 43.56 90.889 43.688 90.633 43.688C90.505 43.688 90.313 43.6453 90.057 43.56C90.0143 43.3467 89.9503 43.2187 89.865 43.176C89.7797 43.1333 89.6303 43.0907 89.417 43.048L89.033 43.304C88.393 43.0907 87.8383 42.7067 87.369 42.152C86.9423 41.5973 86.5583 41.0427 86.217 40.488L86.601 40.36L86.089 40.104L85.961 39.336L85.321 38.824L85.577 38.44C85.2357 38.3547 85.001 38.1627 84.873 37.864C84.745 37.5653 84.681 37.2453 84.681 36.904C84.681 36.6907 84.681 36.52 84.681 36.392C84.7237 36.2213 84.7663 36.0507 84.809 35.88L84.297 35.496C84.169 35.0693 84.1263 34.6427 84.169 34.216C83.785 34.1307 83.5503 33.96 83.465 33.704C83.3797 33.4053 83.273 33.1067 83.145 32.808L83.529 32.296C83.4863 32.2107 83.401 32.2107 83.273 32.296C83.145 32.3387 83.0597 32.3813 83.017 32.424C82.9743 32.04 82.8677 31.6347 82.697 31.208C82.569 30.7813 82.377 30.4187 82.121 30.12L81.353 30.376L81.097 31.016C81.225 31.1013 81.289 31.2507 81.289 31.464C81.3317 31.6347 81.353 31.784 81.353 31.912L80.585 32.168C80.6703 32.3387 80.7343 32.5307 80.777 32.744C80.8623 32.9147 80.9263 33.1067 80.969 33.32L80.457 33.576C80.585 34.1307 80.6277 34.6 80.585 34.984L80.073 35.624C80.201 35.752 80.265 35.9227 80.265 36.136C80.265 36.4347 80.1797 36.7547 80.009 37.096C79.8383 37.4373 79.689 37.672 79.561 37.8C79.689 37.8853 79.753 38.12 79.753 38.504C79.753 38.8027 79.7103 39.144 79.625 39.528C79.5397 39.8693 79.4757 40.1467 79.433 40.36H79.049V40.488L79.433 40.744C79.2197 41.0853 79.113 41.4693 79.113 41.896C79.113 42.3227 79.0917 42.7493 79.049 43.176C79.0063 43.56 78.793 43.8587 78.409 44.072C78.4943 44.4987 78.5583 44.9467 78.601 45.416C78.6437 45.8427 78.665 46.2907 78.665 46.76C78.6223 46.8027 78.5583 46.7813 78.473 46.696C78.4303 46.6107 78.409 46.5467 78.409 46.504L78.153 47.016C78.3237 47.8267 78.409 48.5947 78.409 49.32C78.409 50.088 78.3237 50.8133 78.153 51.496C78.3663 51.9653 78.4943 52.4347 78.537 52.904L77.129 53.032ZM119.333 50.984C119.333 50.856 119.269 50.728 119.141 50.6C119.013 50.5147 118.906 50.5147 118.821 50.6C118.65 50.7707 118.415 50.856 118.117 50.856C117.562 50.856 116.943 50.6213 116.26 50.152C115.621 49.7253 115.151 49.3627 114.853 49.064H114.597L114.469 48.616H114.085C113.829 48.3173 113.509 47.8693 113.125 47.272C112.783 46.632 112.463 45.9707 112.165 45.288C111.909 44.5627 111.781 43.944 111.781 43.432C111.781 43.0907 111.823 42.856 111.909 42.728C111.61 42.5573 111.397 42.2587 111.269 41.832C111.183 41.4053 111.141 40.936 111.141 40.424C111.141 39.6987 111.183 39.08 111.269 38.568L111.077 38.312V33.96C111.162 33.9173 111.247 33.832 111.333 33.704C111.461 33.576 111.589 33.5973 111.717 33.768L111.205 32.872C111.29 32.872 111.397 32.8293 111.525 32.744C111.653 32.6587 111.717 32.5733 111.717 32.488C111.503 32.2747 111.397 31.9333 111.397 31.464C111.397 31.3787 111.397 31.272 111.397 31.144C111.397 31.016 111.418 30.9093 111.461 30.824L111.781 30.568C111.567 30.3973 111.461 30.1413 111.461 29.8C111.461 29.544 111.482 29.2667 111.525 28.968C111.61 28.6693 111.674 28.4347 111.717 28.264C111.717 28.136 111.866 28.0933 112.165 28.136C112.463 28.136 112.549 28.008 112.421 27.752L112.101 26.216L112.549 25.96C112.378 25.7467 112.293 25.4907 112.293 25.192C112.293 24.9787 112.293 24.7867 112.293 24.616C112.335 24.4027 112.378 24.2107 112.421 24.04H112.549L113.061 24.616C113.103 24.5733 113.125 24.5093 113.125 24.424C113.125 24.296 113.039 24.2107 112.869 24.168C112.698 24.0827 112.591 23.9547 112.549 23.784C112.847 23.6987 112.954 23.4213 112.869 22.952C112.783 22.44 112.933 22.056 113.317 21.8L113.189 20.776C113.274 20.776 113.381 20.7547 113.509 20.712C113.637 20.6267 113.701 20.52 113.701 20.392L113.317 20.008C113.573 19.752 113.786 19.24 113.957 18.472C114.17 17.6613 114.362 16.8507 114.533 16.04C114.703 15.1867 114.853 14.568 114.981 14.184C115.066 14.0987 115.13 14.1413 115.173 14.312C115.215 14.44 115.237 14.504 115.237 14.504C115.279 14.5893 115.322 14.5467 115.365 14.376C115.45 14.2053 115.45 14.0987 115.365 14.056H114.981L115.493 13.16L115.237 12.776C115.407 12.0507 115.642 11.3467 115.941 10.664C116.282 9.98133 116.474 9.27733 116.517 8.552C116.559 8.552 116.666 8.488 116.837 8.36C117.05 8.18933 117.157 8.104 117.157 8.104L116.901 7.784C116.901 7.48533 117.05 6.93067 117.349 6.12C117.69 5.26666 118.031 4.43466 118.373 3.624C118.757 2.81333 118.991 2.25866 119.077 1.96L120.357 1.832L120.677 2.472L120.997 2.088C121.21 2.216 121.402 2.38667 121.573 2.6C121.743 2.77067 121.85 2.984 121.893 3.24L122.533 3.496L122.341 3.88C123.023 4.09333 123.471 4.66933 123.685 5.608C123.941 6.504 124.069 7.464 124.069 8.488C124.111 9.46933 124.133 10.2587 124.133 10.856C123.962 10.856 123.791 10.8133 123.621 10.728C123.706 10.984 123.77 11.2187 123.812 11.432C123.855 11.6453 123.877 11.88 123.877 12.136L123.237 12.776C123.493 12.9893 123.621 13.2667 123.621 13.608C123.621 13.9493 123.493 14.312 123.237 14.696C123.023 15.08 122.81 15.4427 122.597 15.784L122.853 16.04L122.213 18.216L121.701 18.536C121.658 18.5787 121.637 18.6427 121.637 18.728C121.637 19.0267 121.722 19.1973 121.893 19.24L121.253 19.752L121.573 20.136C121.317 20.4773 121.082 20.8613 120.869 21.288C120.698 21.672 120.527 22.056 120.357 22.44V22.312C120.314 22.312 120.229 22.5253 120.101 22.952C119.973 23.3787 119.866 23.72 119.781 23.976H119.397L119.141 24.936C118.97 24.808 118.842 24.808 118.757 24.936C118.714 25.0213 118.842 25.064 119.141 25.064L118.885 25.704L118.245 25.96C118.458 26.2587 118.373 26.6853 117.989 27.24C117.647 27.7947 117.37 28.1787 117.157 28.392L116.901 28.264V28.392L116.517 29.032C116.602 29.0747 116.666 29.0533 116.709 28.968C116.794 28.84 116.858 28.776 116.901 28.776C116.943 28.776 116.943 28.84 116.901 28.968C116.858 29.0533 116.815 29.0747 116.773 29.032L116.26 29.416V29.672C116.26 29.9707 116.175 30.1627 116.005 30.248C115.877 30.3333 115.727 30.4187 115.557 30.504C115.429 30.5893 115.365 30.8667 115.365 31.336H114.853C114.938 31.464 114.981 31.6133 114.981 31.784C114.981 32.0827 114.895 32.36 114.725 32.616C114.554 32.8293 114.426 33.064 114.341 33.32L114.725 33.96L114.597 34.728C114.511 34.728 114.426 34.728 114.341 34.728C114.298 34.6853 114.255 34.664 114.213 34.664C113.957 34.664 113.829 34.728 113.829 34.856C113.829 34.9413 113.914 35.0693 114.085 35.24C114.255 35.4107 114.383 35.5387 114.469 35.624C114.383 35.752 114.341 35.944 114.341 36.2C114.341 36.4987 114.383 36.7973 114.469 37.096C114.554 37.352 114.554 37.6293 114.469 37.928H114.277L114.341 38.632L114.085 38.824L114.277 40.808C114.447 40.9787 114.554 41.384 114.597 42.024C114.682 42.6213 114.725 43.2827 114.725 44.008C114.895 44.0933 115.023 44.3493 115.109 44.776C115.237 45.2027 115.343 45.6507 115.429 46.12C115.514 46.5467 115.578 46.8667 115.621 47.08L116.005 47.208L116.26 47.976L117.029 48.424C116.858 48.5947 116.858 48.744 117.029 48.872C117.242 49 117.37 48.9787 117.413 48.808C118.01 49.1493 118.373 49.3627 118.501 49.448C118.671 49.5333 118.842 49.576 119.013 49.576C119.226 49.6187 119.695 49.704 120.421 49.832L121.253 49.32C121.21 49.4907 121.274 49.5547 121.445 49.512C121.658 49.4693 121.701 49.384 121.573 49.256C121.743 49.1707 122.063 49.0213 122.533 48.808C123.045 48.5947 123.365 48.5307 123.493 48.616L123.365 49.256H122.981C122.682 49.6827 122.17 50.024 121.445 50.28L121.317 50.088L120.421 50.856L119.333 50.984ZM115.365 27.496C115.45 27.624 115.493 27.7733 115.493 27.944C115.493 28.072 115.493 28.2213 115.493 28.392H116.005C116.09 28.0933 116.175 27.816 116.26 27.56C116.346 27.304 116.559 27.1547 116.901 27.112L117.157 27.24L116.517 26.856H116.901C116.901 26.6427 116.922 26.4293 116.965 26.216C117.05 26.0027 117.114 25.7893 117.157 25.576H117.285L117.413 26.152C117.37 25.512 117.541 24.8933 117.925 24.296C118.309 23.656 118.714 23.144 119.141 22.76C119.013 22.76 118.949 22.7173 118.949 22.632C118.949 22.5467 118.906 22.4827 118.821 22.44L119.717 21.416C119.546 21.288 119.461 21.224 119.461 21.224C119.503 21.1813 119.525 21.0747 119.525 20.904C119.653 20.8613 119.759 20.8187 119.845 20.776C119.973 20.7333 120.079 20.6907 120.165 20.648C120.037 20.392 119.973 20.1787 119.973 20.008L120.037 19.88H120.421C120.421 19.1973 120.506 18.792 120.677 18.664C120.847 18.536 121.039 18.216 121.253 17.704L121.061 17.064C121.487 16.7227 121.722 16.4453 121.765 16.232C121.85 15.976 121.893 15.592 121.893 15.08C121.978 14.952 122.063 14.8667 122.149 14.824C122.234 14.7813 122.298 14.6747 122.341 14.504C122.17 14.5467 122.085 14.568 122.085 14.568C122.085 14.568 122.042 14.4613 121.957 14.248C122.255 13.9067 122.426 13.5227 122.469 13.096C122.554 12.6267 122.682 12.1787 122.853 11.752C122.682 11.752 122.597 11.7093 122.597 11.624C122.597 11.5387 122.597 11.4107 122.597 11.24C122.725 11.0267 122.81 10.728 122.853 10.344C122.895 9.91733 122.917 9.46933 122.917 9C122.917 8.53067 122.895 8.08266 122.853 7.656C122.853 7.18667 122.853 6.824 122.853 6.568L122.533 6.44C122.447 6.35466 122.383 6.26933 122.341 6.184C122.298 6.056 122.255 5.97066 122.213 5.928H122.085C121.999 6.48266 121.765 6.99466 121.381 7.464C121.039 7.89066 120.805 8.40266 120.677 9L120.805 9.064C120.762 9.23467 120.655 9.36267 120.485 9.448C120.357 9.53333 120.25 9.66133 120.165 9.832C120.378 10.0453 120.485 10.2373 120.485 10.408C120.485 10.664 120.357 10.92 120.101 11.176C119.845 11.432 119.653 11.6667 119.525 11.88C119.738 11.9227 119.845 11.944 119.845 11.944C119.845 11.944 119.887 12.008 119.973 12.136C119.674 12.52 119.503 12.968 119.461 13.48C119.418 13.992 119.226 14.44 118.885 14.824V14.696C118.799 14.6107 118.757 14.568 118.757 14.568C118.799 14.5253 118.714 14.4827 118.501 14.44C118.543 14.568 118.586 14.696 118.629 14.824C118.714 14.9093 118.778 15.016 118.821 15.144C118.65 15.1867 118.565 15.208 118.565 15.208C118.607 15.208 118.586 15.2933 118.501 15.464L118.693 15.528L118.245 15.72C118.373 15.8907 118.437 16.1253 118.437 16.424C118.437 16.8507 118.287 17.2987 117.989 17.768C117.69 18.1947 117.498 18.6 117.413 18.984C117.541 19.112 117.605 19.2613 117.605 19.432C117.605 19.6027 117.562 19.816 117.477 20.072C117.391 20.2853 117.327 20.4773 117.285 20.648C117.157 20.6907 117.029 20.7547 116.901 20.84C116.773 20.9253 116.645 21.032 116.517 21.16H116.773L117.157 21.416C116.474 22.3547 116.175 23.3573 116.26 24.424C116.005 24.552 115.855 24.7653 115.812 25.064C115.77 25.32 115.749 25.576 115.749 25.832C115.834 25.96 115.877 26.0027 115.877 25.96C115.919 25.9173 115.962 26.0027 116.005 26.216C115.749 26.472 115.621 26.664 115.621 26.792C115.621 26.8347 115.642 26.92 115.685 27.048C115.727 27.1333 115.749 27.2827 115.749 27.496H115.365ZM125.491 45.608C125.448 45.352 125.384 45.224 125.299 45.224C125.256 45.224 125.213 45.2667 125.171 45.352C125.128 45.3947 125.064 45.416 124.979 45.416C124.893 45.416 124.787 45.2453 124.659 44.904L123.443 44.392L123.635 43.944L123.059 43.88L122.995 43.304H122.867L122.739 42.856L123.059 42.344L122.867 42.216L123.315 41.896L123.059 41.64C123.059 41.4267 123.123 41.0853 123.251 40.616C123.379 40.1467 123.528 39.848 123.699 39.72C123.656 39.6347 123.613 39.4853 123.571 39.272C123.571 39.016 123.656 38.9093 123.827 38.952L123.699 38.056C123.784 37.8853 123.891 37.672 124.019 37.416C124.189 37.16 124.147 37.1387 123.891 37.352L124.211 35.432L124.339 35.24H124.595C124.552 35.1547 124.509 35.0053 124.467 34.792C124.467 34.536 124.467 34.2587 124.467 33.96C124.467 33.1067 124.509 32.168 124.595 31.144C124.723 30.0773 124.851 29.352 124.979 28.968C124.893 28.712 124.851 28.392 124.851 28.008C124.851 27.5813 124.957 27.3467 125.171 27.304L125.299 24.104C125.299 24.104 125.299 24.0613 125.299 23.976C125.341 23.8907 125.363 23.784 125.363 23.656C125.363 23.3573 125.299 23.016 125.171 22.632C125.299 22.5893 125.384 22.5253 125.427 22.44C125.512 22.312 125.448 22.248 125.235 22.248L125.683 21.864L125.235 21.288L125.363 20.008C125.405 20.0507 125.469 20.072 125.555 20.072C125.725 20.072 125.789 19.9653 125.747 19.752C125.704 19.496 125.576 19.432 125.363 19.56L125.491 18.28H125.875V18.216C125.875 18.1307 125.832 17.9813 125.747 17.768C125.704 17.512 125.64 17.3627 125.555 17.32C125.683 17.3627 125.747 17.0427 125.747 16.36C125.747 16.0613 125.725 15.72 125.683 15.336C125.683 14.952 125.683 14.5893 125.683 14.248C125.683 13.736 125.725 13.2667 125.811 12.84C125.896 12.4133 126.024 12.1573 126.195 12.072C126.024 11.3893 125.981 10.792 126.067 10.28L126.579 10.344L126.067 9.896L126.579 9.704L126.195 9.192V9.128C126.195 9.04267 126.237 8.936 126.323 8.808C126.408 8.68 126.493 8.65866 126.579 8.744C126.493 8.40267 126.451 8.12533 126.451 7.912C126.451 7.61333 126.472 7.336 126.515 7.08C126.557 6.824 126.579 6.568 126.579 6.312L126.835 6.056L126.707 5.48L127.027 5.352C127.155 4.75466 127.261 4.136 127.347 3.496C127.432 2.81333 127.667 2.23733 128.051 1.768H128.627L128.819 2.088L129.523 2.152C129.48 2.28 129.523 2.38666 129.651 2.472C129.821 2.51466 129.907 2.49333 129.907 2.408C130.205 2.83466 130.355 3.09066 130.355 3.176C130.397 3.26133 130.525 3.304 130.739 3.304C130.781 3.304 130.845 3.38933 130.931 3.56C131.016 3.73066 131.016 3.816 130.931 3.816C131.187 3.90133 131.336 4.11466 131.379 4.456C131.464 4.75467 131.507 5.01067 131.507 5.224H131.763L131.635 5.928H131.891L131.827 6.696L131.763 6.632C131.677 6.632 131.613 6.76 131.571 7.016C131.571 7.272 131.635 7.35733 131.763 7.272L131.635 8.616H131.379C131.421 9.08533 131.379 9.576 131.251 10.088C131.123 10.6 131.059 11.112 131.059 11.624C130.973 11.5387 130.867 11.56 130.739 11.688C130.867 11.944 130.931 12.1787 130.931 12.392C130.931 12.776 130.845 13.16 130.675 13.544C130.504 13.8853 130.461 14.248 130.547 14.632L130.163 14.696L130.291 15.208L130.035 15.336C130.12 15.6773 130.163 15.976 130.163 16.232C130.163 16.744 130.099 17.256 129.97 17.768C129.843 18.28 129.672 18.6853 129.459 18.984L129.523 19.112L129.139 19.304L129.651 19.56C129.565 19.7307 129.416 19.9653 129.203 20.264C128.989 20.5627 129.053 20.6907 129.395 20.648C129.309 21.2027 129.139 21.608 128.883 21.864L129.139 21.928L128.883 22.44L129.01 23.08L128.435 23.272L128.883 23.848L128.179 24.488C128.307 24.616 128.371 24.8933 128.371 25.32C128.371 25.832 128.285 26.4933 128.115 27.304C127.987 28.072 127.837 28.7973 127.667 29.48C127.496 30.1627 127.347 30.6107 127.219 30.824L127.475 30.696L126.707 34.984L126.515 35.048V36.584H126.131C126.131 36.6267 126.173 36.6693 126.259 36.712C126.387 36.7547 126.451 36.7973 126.451 36.84V37.16L126.323 37.032L126.131 36.968C126.131 37.0107 126.131 37.0747 126.131 37.16C126.173 37.2027 126.195 37.2667 126.195 37.352C126.195 37.608 126.152 37.864 126.067 38.12C126.024 38.3333 125.981 38.568 125.939 38.824L126.067 38.696L126.003 39.208L126.131 39.144L126.323 38.504C126.408 38.5893 126.493 38.632 126.579 38.632C126.707 38.632 126.792 38.568 126.835 38.44C126.92 38.2693 126.877 38.0987 126.707 37.928L127.347 37.48C127.261 37.3947 127.219 37.288 127.219 37.16C127.219 36.9893 127.325 36.904 127.539 36.904C127.752 36.8613 127.923 36.7973 128.051 36.712C128.221 36.6267 128.157 36.4347 127.859 36.136L128.371 35.56C128.456 35.6453 128.605 35.4747 128.819 35.048C129.075 34.6213 129.288 34.28 129.459 34.024L129.587 34.216C129.672 34.216 129.736 34.088 129.779 33.832C129.821 33.576 129.864 33.4267 129.907 33.384L130.099 33C130.184 33 130.269 33.0427 130.355 33.128C130.44 33.2133 130.504 33.256 130.547 33.256C130.589 33.256 130.589 33.1707 130.547 33C130.547 32.8293 130.461 32.7653 130.291 32.808L130.803 32.488C130.76 32.36 130.781 32.232 130.867 32.104C130.952 31.976 130.995 32.0187 130.995 32.232L131.443 31.784L131.379 31.592C131.592 31.2507 131.869 30.952 132.211 30.696C132.552 30.3973 132.872 30.0987 133.171 29.8C133.085 29.672 133.085 29.6507 133.171 29.736C133.299 29.7787 133.384 29.8 133.427 29.8L133.363 29.224L134.003 29.288L134.131 29.096L134.067 28.584C134.621 28.2853 135.069 27.9227 135.411 27.496C135.752 27.0267 136.221 26.7493 136.819 26.664C136.861 26.6213 136.883 26.5147 136.883 26.344L137.395 26.472C137.395 26.4293 137.437 26.3867 137.523 26.344C137.608 26.2587 137.651 26.1947 137.651 26.152L138.227 26.024C138.227 25.9387 138.205 25.8747 138.163 25.832C138.12 25.7893 138.12 25.7467 138.163 25.704L140.019 25.64V25.896L140.083 25.832C140.552 26.0453 141.021 26.28 141.491 26.536L141.683 27.688L142.131 27.496C142.301 27.5813 142.301 27.7093 142.131 27.88C142.003 28.0507 141.896 28.072 141.811 27.944L142.131 28.584C142.216 28.6267 142.301 28.648 142.387 28.648C142.472 28.648 142.493 28.6907 142.451 28.776L142.131 29.096L142.451 29.352L141.875 30.248L142.387 30.44C142.429 30.44 142.387 30.4827 142.259 30.568C142.131 30.6107 142.067 30.6533 142.067 30.696C142.195 30.9093 142.173 31.2507 142.003 31.72C141.832 32.1893 141.597 32.6373 141.299 33.064C141.043 33.448 140.829 33.6827 140.659 33.768C140.659 33.8107 140.637 33.832 140.595 33.832C140.552 33.9173 140.467 34.024 140.339 34.152C140.253 34.28 140.211 34.3867 140.211 34.472L140.403 34.984L140.019 35.624H139.507C139.464 35.6667 139.485 35.688 139.571 35.688C139.656 35.688 139.72 35.7307 139.763 35.816L139.123 36.712L138.739 36.648L138.227 37.544L138.483 37.48C138.355 37.736 138.184 37.9493 137.971 38.12C137.757 38.2907 137.544 38.44 137.331 38.568V38.632C137.331 38.76 137.288 38.888 137.203 39.016C137.117 39.144 137.032 39.1653 136.947 39.08L136.627 39.72H136.499L135.987 40.168L135.923 40.488L135.027 40.744L134.835 41.384C134.664 41.2133 134.6 41.2347 134.643 41.448L133.811 42.088C133.725 42.0453 133.661 42.024 133.619 42.024C133.576 41.9813 133.533 41.96 133.491 41.96C133.405 41.96 133.448 42.1307 133.619 42.472L132.531 43.24L132.083 43.112L131.635 43.752H131.251C131.251 43.752 131.315 43.7733 131.443 43.816C131.571 43.816 131.571 43.8587 131.443 43.944C131.4 43.9867 131.315 43.9653 131.187 43.88C131.101 43.752 131.016 43.7093 130.931 43.752V44.136L130.291 44.328L130.611 44.456C130.056 44.4987 129.523 44.6267 129.01 44.84C128.541 45.0107 128.051 45.16 127.539 45.288L127.475 44.904C127.432 44.8187 127.411 44.8827 127.411 45.096C127.411 45.3093 127.389 45.4587 127.347 45.544L125.491 45.608ZM125.427 43.24C125.512 43.3253 125.597 43.4107 125.683 43.496C125.768 43.5813 125.832 43.6667 125.875 43.752L125.939 43.496H126.195C126.664 43.496 127.005 43.368 127.219 43.112L127.091 42.984C127.347 43.0267 127.603 43.0053 127.859 42.92L128.115 42.408C128.456 42.152 128.819 42.1093 129.203 42.28C129.203 42.1093 129.288 41.9813 129.459 41.896L129.331 41.768C129.544 41.5973 129.8 41.4907 130.099 41.448C130.44 41.3627 130.675 41.192 130.803 40.936L130.739 40.872C131.208 40.6587 131.784 40.296 132.467 39.784C133.149 39.2293 133.704 38.7387 134.131 38.312L134.067 38.056C134.28 38.056 134.429 38.0987 134.515 38.184V38.12C134.515 37.864 134.643 37.5653 134.899 37.224C135.197 36.8827 135.453 36.6907 135.667 36.648L135.795 36.776L135.923 36.712C135.88 36.6693 135.859 36.584 135.859 36.456C135.859 36.328 135.88 36.2213 135.923 36.136C136.008 36.008 136.072 35.9013 136.115 35.816H136.307V36.008C136.307 36.392 136.413 36.4347 136.627 36.136C136.84 35.7947 137.075 35.3467 137.331 34.792C137.587 34.2373 137.757 33.8107 137.843 33.512L137.715 33.192L138.035 32.552L138.419 32.488L138.035 32.36C138.376 32.0613 138.589 31.528 138.675 30.76C138.803 29.992 138.867 29.3947 138.867 28.968V28.264C138.696 28.2213 138.589 28.1573 138.547 28.072C138.547 27.9867 138.504 27.88 138.419 27.752C137.992 27.9227 137.651 28.0293 137.395 28.072C137.181 28.1147 136.904 28.3067 136.562 28.648L135.987 28.584L136.115 29.032L135.603 29.224L135.475 29.544L135.027 29.608C135.027 30.0347 134.856 30.2693 134.515 30.312V30.568C134.301 30.568 134.131 30.6533 134.003 30.824C134.045 30.8667 134.067 30.9093 134.067 30.952C134.067 31.08 134.003 31.208 133.875 31.336C133.747 31.4213 133.64 31.5067 133.555 31.592L133.427 31.272C133.341 31.3573 133.235 31.4853 133.107 31.656C133.021 31.784 133.021 31.9333 133.107 32.104L132.531 32.872L131.827 33.192L131.891 33.64C131.549 33.8107 131.336 34.0027 131.251 34.216C131.165 34.4293 131.08 34.6213 130.995 34.792C130.909 34.9627 130.632 35.112 130.163 35.24L130.291 35.368H130.547C130.376 35.5387 130.205 35.688 130.035 35.816C129.907 35.944 129.715 36.0293 129.459 36.072L129.651 36.52L129.267 36.584L129.459 36.904C129.203 37.0747 128.925 37.3947 128.627 37.864C128.371 38.2907 128.2 38.6533 128.115 38.952H127.923V38.568C127.88 38.7387 127.816 38.8667 127.731 38.952C127.688 38.9947 127.624 39.0587 127.539 39.144L127.667 39.4L127.539 39.784L127.347 39.72L127.475 39.848C127.261 40.1467 127.048 40.488 126.835 40.872C126.664 41.2133 126.365 41.4053 125.939 41.448V41.64C125.939 41.9813 125.853 42.2587 125.683 42.472L125.491 42.728L125.811 42.792C125.768 42.8347 125.704 42.8987 125.619 42.984C125.533 43.0693 125.469 43.1547 125.427 43.24ZM140.659 33.768C140.659 33.768 140.637 33.7893 140.595 33.832L140.659 33.768ZM154.287 75.816L152.559 76.072L152.495 75.816L150.831 75.944V75.752L149.103 75.24V75.112L147.887 74.216C147.844 74.2587 147.801 74.28 147.759 74.28C147.673 74.28 147.567 74.1947 147.439 74.024C147.311 73.896 147.204 73.8107 147.119 73.768C147.076 73.7253 147.119 73.704 147.247 73.704C147.417 73.704 147.46 73.704 147.375 73.704C147.033 73.448 146.82 73.1493 146.735 72.808C146.692 72.4667 146.564 72.36 146.351 72.488L146.095 71.656C145.881 71.656 145.775 71.4427 145.775 71.016C145.775 70.632 145.625 70.4187 145.327 70.376L145.135 69.672L145.391 69.736V69.608L145.135 69.544L144.879 68.904L144.559 66.984L144.367 67.048C144.367 66.7493 144.345 66.472 144.303 66.216C144.26 65.96 144.239 65.704 144.239 65.448C144.239 65.1067 144.303 64.7867 144.431 64.488L143.983 64.424L144.047 63.336L144.367 63.208C144.324 63.1227 144.239 63.0587 144.111 63.016C143.983 63.016 143.897 62.9947 143.855 62.952L143.919 62.568L144.047 62.632L144.174 61.608L143.791 61.288L143.919 60.456C143.833 60.3707 143.769 60.1147 143.727 59.688C143.684 59.304 143.663 58.8987 143.663 58.472C143.663 58.0453 143.663 57.768 143.663 57.64C143.791 57.5547 143.855 57.4267 143.855 57.256C143.855 57.0853 143.812 56.9147 143.727 56.744C143.684 56.5733 143.663 56.4667 143.663 56.424H144.047L144.174 56.04C143.876 55.9973 143.705 55.9547 143.663 55.912C143.62 55.912 143.748 55.8693 144.047 55.784H143.855L143.663 55.528V55.4C143.663 55.1867 143.748 55.0587 143.919 55.016C144.089 55.016 144.132 54.9947 144.047 54.952L143.663 54.76L144.047 51.88L144.559 51.176C144.559 51.1333 144.516 51.0907 144.431 51.048C144.388 51.0053 144.367 51.0053 144.367 51.048V51.304L144.047 50.984L143.983 49.704C144.196 49.6613 144.303 49.5547 144.303 49.384C144.345 49.256 144.26 49.2347 144.047 49.32L144.431 48.488H144.367L144.239 47.464H144.431C144.473 47.3787 144.452 47.336 144.367 47.336C144.324 47.2933 144.281 47.2933 144.239 47.336L144.367 46.248C144.495 46.2907 144.623 46.312 144.751 46.312C144.836 46.312 144.879 46.2907 144.879 46.248C144.879 46.12 144.772 45.928 144.559 45.672C144.388 45.3733 144.452 45.1387 144.751 44.968L144.687 43.432H144.943V42.408C144.943 41.9387 145.007 41.4907 145.135 41.064C145.476 40.8933 145.583 40.744 145.455 40.616C145.369 40.488 145.263 40.3813 145.135 40.296C145.049 40.168 145.177 40.04 145.519 39.912L145.583 38.824H145.711C145.881 38.824 145.988 38.6533 146.031 38.312C146.116 37.9707 146.137 37.7147 146.095 37.544L145.903 36.712H144.751L144.879 36.584L143.023 37.48C143.065 37.4373 143.087 37.416 143.087 37.416C143.087 37.3733 143.065 37.3947 143.023 37.48C143.065 37.4373 143.065 37.3947 143.023 37.352C142.98 37.2667 142.937 37.2667 142.895 37.352C142.724 37.5653 142.553 37.7573 142.383 37.928C142.212 38.056 141.913 38.0987 141.486 38.056C141.444 38.0133 141.465 37.9493 141.55 37.864C141.636 37.7787 141.678 37.6933 141.678 37.608L141.486 37.48L141.678 37.416L142.511 36.072C142.468 36.0293 142.447 35.9867 142.447 35.944C142.447 35.8587 142.553 35.7733 142.767 35.688C142.98 35.6027 143.108 35.5173 143.151 35.432C143.193 35.3893 143.215 35.3467 143.215 35.304C143.215 35.2187 143.215 35.1333 143.215 35.048C143.215 34.92 143.321 34.856 143.535 34.856C143.62 34.856 143.812 34.7067 144.111 34.408C144.409 34.1093 144.58 34.088 144.623 34.344H144.751L144.815 33.96C144.9 33.96 145.007 34.024 145.135 34.152C145.263 34.2373 145.348 34.2587 145.391 34.216C145.433 34.216 145.433 34.1307 145.391 33.96C145.391 33.7893 145.412 33.6827 145.455 33.64H145.839L145.775 33.512L147.247 32.808C147.033 32.6373 146.927 32.4667 146.927 32.296C146.927 32.0827 147.012 31.912 147.183 31.784C147.396 31.6133 147.588 31.5067 147.759 31.464C147.887 31.464 147.951 31.336 147.951 31.08C147.951 30.9093 147.908 30.7387 147.823 30.568C147.737 30.3547 147.609 30.248 147.439 30.248L147.951 28.776L148.015 29.096L148.271 27.112H148.591L148.975 24.232C149.06 24.36 149.081 24.3813 149.039 24.296C149.039 24.168 149.103 24.104 149.231 24.104L149.295 22.888C149.337 22.8027 149.38 22.8453 149.423 23.016C149.465 23.144 149.508 23.1653 149.551 23.08L149.615 21.48L149.935 20.648L150.255 20.52L149.871 20.264L150.51 18.28L150.639 18.216L150.575 17.832C150.617 17.7893 150.681 17.6613 150.767 17.448C150.852 17.2347 150.959 17.1067 151.087 17.064L151.343 15.208C151.343 15.3787 151.407 15.3573 151.535 15.144C151.663 14.888 151.577 14.8027 151.279 14.888L152.239 12.328C152.111 12.2427 152.047 12.1787 152.047 12.136C152.047 12.0507 152.111 11.9653 152.239 11.88C152.367 11.7947 152.431 11.7307 152.431 11.688V11.56C152.431 11.4747 152.409 11.368 152.367 11.24C152.324 11.112 152.324 11.0053 152.367 10.92L152.623 10.856L152.943 9.064L153.135 9H152.943L153.007 8.872H153.327L153.199 8.744H153.455L153.071 8.616L153.327 7.592C153.369 7.63467 153.412 7.656 153.455 7.656C153.54 7.656 153.583 7.528 153.583 7.272C153.583 7.016 153.604 6.84533 153.647 6.76C153.689 6.54667 153.732 6.54667 153.775 6.76C153.86 6.93067 153.924 7.016 153.967 7.016L154.351 6.696L155.183 7.208C155.268 7.37866 155.311 7.528 155.311 7.656C155.353 7.74133 155.46 7.69866 155.631 7.528L156.271 8.36L156.079 8.744C156.036 8.872 156.079 8.91466 156.207 8.872C156.377 8.82933 156.484 8.808 156.527 8.808L156.655 9.256L156.847 9.192L156.655 10.28L156.975 10.344L157.039 10.152V12.072C156.825 12.1573 156.719 12.2427 156.719 12.328C156.761 12.3707 156.804 12.3707 156.847 12.328L156.783 13.224C156.655 13.224 156.548 13.2453 156.463 13.288C156.42 13.3307 156.484 13.3307 156.655 13.288L156.143 15.272L156.335 15.336L155.887 16.232C155.972 16.36 155.887 16.744 155.631 17.384C155.417 18.024 155.289 18.4507 155.247 18.664L154.863 18.792C154.863 18.8347 154.841 18.8987 154.799 18.984C154.799 19.0267 154.799 19.0907 154.799 19.176L154.863 19.816C154.863 19.9867 154.799 20.1787 154.671 20.392C154.628 20.4347 154.521 20.456 154.351 20.456C154.223 20.4133 154.159 20.456 154.159 20.584L154.415 20.968L153.903 22.696C153.817 22.6533 153.732 22.632 153.647 22.632C153.561 22.632 153.519 22.6747 153.519 22.76C153.519 22.8453 153.54 22.9307 153.583 23.016C153.625 23.1013 153.668 23.1867 153.711 23.272L153.199 24.168L153.007 24.104L153.135 24.36L152.943 24.616L153.071 24.744L152.687 26.088C152.516 26.0453 152.409 26.0453 152.367 26.088C152.367 26.1307 152.452 26.152 152.623 26.152L152.111 27.432L152.239 27.368C152.111 27.752 151.961 28.136 151.791 28.52C151.663 28.8613 151.556 29.2453 151.47 29.672H151.087L150.959 30.376L151.087 30.76L150.831 31.784C150.916 31.784 151.151 31.7413 151.535 31.656C151.919 31.528 152.303 31.4 152.687 31.272C153.113 31.144 153.369 31.0587 153.455 31.016L153.519 31.272L153.839 30.76C153.881 30.7173 153.967 30.696 154.095 30.696C154.223 30.696 154.351 30.7387 154.479 30.824C154.607 30.8667 154.628 30.952 154.543 31.08L156.271 30.056V30.248H156.591L156.399 30.12L156.527 30.056L159.151 29.288C159.193 29.3307 159.193 29.3733 159.151 29.416L159.599 29.224C159.641 29.2667 159.705 29.3307 159.791 29.416C159.919 29.4587 160.004 29.48 160.047 29.48C160.175 29.48 160.153 29.4373 159.983 29.352C159.855 29.224 159.855 29.1387 159.983 29.096L160.687 28.904V29.032C160.687 29.2453 160.836 29.352 161.135 29.352C161.433 29.3093 161.54 29.224 161.455 29.096L161.007 28.84L162.991 28.52C162.948 28.4347 163.012 28.392 163.183 28.392C163.353 28.392 163.524 28.4133 163.695 28.456C163.908 28.456 163.972 28.392 163.887 28.264L165.295 28.392C165.38 28.392 165.444 28.328 165.487 28.2C165.529 28.072 165.551 27.9867 165.551 27.944L168.175 27.752C168.303 27.9227 168.431 28.008 168.559 28.008C168.687 28.008 168.793 27.9867 168.879 27.944C169.007 27.9013 169.049 28.0507 169.007 28.392L168.047 28.776L167.983 28.584L167.919 28.776L167.791 28.584V28.776H166.575V29.032L164.847 29.096V29.352C164.804 29.352 164.655 29.3307 164.399 29.288C164.185 29.2453 164.1 29.3093 164.143 29.48L162.991 29.544V29.8L161.903 29.672C161.86 29.672 161.839 29.6933 161.839 29.736C161.839 29.8213 161.924 29.8853 162.095 29.928C162.308 29.9707 162.372 30.0133 162.287 30.056C162.116 30.1413 161.924 30.2053 161.711 30.248C161.497 30.248 161.305 30.2907 161.135 30.376C161.092 30.2907 161.028 30.248 160.943 30.248C160.815 30.248 160.665 30.312 160.495 30.44C160.367 30.568 160.217 30.632 160.047 30.632V30.568L159.919 30.76C159.791 30.7173 159.684 30.6747 159.599 30.632C159.513 30.5893 159.428 30.568 159.343 30.568C159.3 30.568 159.172 30.696 158.958 30.952L157.999 31.08L158.447 31.144C157.807 31.4853 157.145 31.592 156.463 31.464C156.505 31.592 156.356 31.7413 156.015 31.912C155.716 32.0827 155.652 32.04 155.823 31.784L153.903 32.616L153.775 32.488V32.808L152.687 33.192L152.751 33.128H152.687C152.601 33.128 152.409 33.1707 152.111 33.256C151.855 33.2987 151.62 33.32 151.407 33.32V33.704C151.364 33.7467 151.279 33.7467 151.151 33.704C151.023 33.6613 150.959 33.64 150.959 33.64L150.767 33.768C150.767 33.768 150.809 33.768 150.895 33.768C151.023 33.768 151.065 33.8107 151.023 33.896L150.255 34.28L149.935 35.176C149.892 35.1333 149.849 35.112 149.807 35.112C149.764 35.112 149.743 35.176 149.743 35.304C149.743 35.56 149.807 35.7307 149.935 35.816C150.361 36.0293 150.724 36.2 151.023 36.328C151.321 36.4133 151.684 36.52 152.111 36.648L152.175 36.84C152.175 36.7973 152.175 36.7333 152.175 36.648C152.217 36.52 152.303 36.4987 152.431 36.584C152.473 36.6267 152.537 36.7333 152.623 36.904C152.708 37.032 152.815 36.968 152.943 36.712L154.607 37.928L154.543 37.416L155.951 38.44C156.036 38.3973 156.143 38.376 156.271 38.376C156.527 38.376 156.74 38.568 156.911 38.952L157.743 39.08C157.743 39.1227 157.721 39.1653 157.679 39.208C157.679 39.208 157.679 39.2293 157.679 39.272C157.679 39.4853 157.807 39.6773 158.062 39.848C158.319 40.0187 158.553 40.1467 158.767 40.232L159.087 39.976L159.727 40.424V40.488C159.727 40.5733 159.791 40.7227 159.919 40.936C160.047 41.1067 160.239 41.1493 160.495 41.064L161.135 41.64C160.964 41.768 160.964 41.8533 161.135 41.896C161.305 41.896 161.412 41.9387 161.455 42.024C161.54 42.1947 161.604 42.3227 161.647 42.408C161.689 42.4933 161.86 42.6213 162.159 42.792C162.372 42.8773 162.521 43.1333 162.607 43.56C162.692 43.944 162.841 44.0507 163.055 43.88L163.887 45.352C164.015 45.224 164.079 45.2667 164.079 45.48C164.079 45.6507 164.079 45.736 164.079 45.736L164.207 45.608L164.335 45.8L164.463 46.44H164.591V46.248L164.655 46.376L164.847 46.504C164.847 46.504 164.804 46.5467 164.719 46.632C164.761 46.632 164.847 46.6747 164.975 46.76L165.103 47.528L165.295 47.464L165.935 49.064C165.935 49.064 165.935 49.1493 165.935 49.32C165.935 49.5333 165.977 49.5973 166.063 49.512L166.767 53.672L166.639 53.544C166.639 53.5867 166.66 53.672 166.703 53.8C166.745 53.9707 166.788 54.0133 166.831 53.928L166.895 54.76H166.575L166.895 55.4L166.703 55.336L166.895 56.232C166.852 56.232 166.788 56.4453 166.703 56.872C166.66 57.3413 166.639 57.7467 166.639 58.088C166.639 58.4293 166.66 58.6 166.703 58.6C166.447 59.112 166.191 59.5813 165.935 60.008C165.721 60.4773 165.636 61.0107 165.679 61.608L165.807 61.544L165.615 62.184L165.423 62.12L165.295 63.208C165.337 63.208 165.316 63.2507 165.231 63.336L164.591 64.04L164.719 64.488L164.207 65.192V65.512L163.887 65.384L163.951 65.768C163.908 65.8533 163.865 65.9387 163.823 66.024C163.78 66.152 163.78 66.2587 163.823 66.344L163.311 67.304C163.268 67.304 163.225 67.2827 163.183 67.24C163.183 67.24 163.161 67.24 163.119 67.24C162.991 67.24 162.905 67.3467 162.863 67.56C162.863 67.7733 162.735 67.944 162.479 68.072L161.583 69.608L161.455 69.544L161.071 70.504C160.687 70.504 160.495 70.6107 160.495 70.824C160.495 70.952 160.495 71.0587 160.495 71.144C160.537 71.272 160.495 71.3787 160.367 71.464L159.983 71.4L160.111 71.656L159.087 72.872C159.044 72.9147 158.959 72.872 158.831 72.744C158.745 72.616 158.681 72.5947 158.639 72.68C158.553 72.8507 158.404 73.0213 158.191 73.192C157.977 73.4053 157.913 73.5973 157.999 73.768L157.167 74.28C157.209 74.2373 157.231 74.216 157.231 74.216C157.231 74.216 157.209 74.2373 157.167 74.28C157.252 74.2373 157.231 74.1733 157.103 74.088C156.975 74.0027 156.889 74.024 156.847 74.152C156.804 74.3227 156.825 74.4507 156.911 74.536C157.039 74.6213 156.911 74.6 156.527 74.472L155.567 75.24C155.439 75.112 155.332 75.048 155.247 75.048C155.119 75.048 155.055 75.1333 155.055 75.304C155.055 75.4747 155.012 75.5813 154.927 75.624L154.287 75.752L154.159 75.56L154.287 75.816ZM160.367 30.056L160.111 30.504L160.495 30.376L160.367 30.056ZM153.903 74.024V74.344L154.287 74.024C154.585 73.9813 154.884 73.9387 155.183 73.896C155.481 73.896 155.759 73.832 156.015 73.704V73.576H156.271L156.079 73.704C156.079 73.704 156.143 73.704 156.271 73.704L156.463 73.576H156.399H156.271C156.228 73.4907 156.271 73.4907 156.399 73.576H156.463C156.548 73.6613 156.612 73.704 156.655 73.704C156.783 73.704 156.783 73.64 156.655 73.512L156.527 73.192C156.868 72.9787 157.145 72.68 157.359 72.296C157.572 71.9547 157.871 71.7627 158.255 71.72L158.895 70.824C158.895 70.824 158.873 70.824 158.831 70.824C158.788 70.824 158.767 70.8027 158.767 70.76L159.023 70.632L159.151 70.888H159.215V70.44L159.407 70.376C159.449 70.3333 159.492 70.1627 159.535 69.864C159.62 69.608 159.684 69.4587 159.727 69.416H159.855L159.919 69.672L160.111 69.288L159.727 69.416V69.288L160.175 68.52H160.367C160.452 68.648 160.516 68.6907 160.559 68.648C160.644 68.6053 160.665 68.5413 160.623 68.456L160.495 68.072L160.687 67.56H161.135C161.263 67.3467 161.241 67.2187 161.071 67.176C160.9 67.1333 160.836 67.112 160.878 67.112L161.135 66.664H161.711L161.583 65.96L161.519 66.088V66.024C161.519 65.896 161.561 65.7893 161.647 65.704C161.775 65.6187 161.753 65.5547 161.583 65.512C161.796 65.4267 161.967 65.128 162.095 64.616C162.223 64.1467 162.308 63.8267 162.351 63.656L162.479 63.592C162.521 63.6347 162.543 63.6987 162.543 63.784C162.543 63.8693 162.564 63.8907 162.607 63.848C162.692 63.5067 162.735 63.144 162.735 62.76C162.735 62.4187 162.777 62.0773 162.863 61.736L163.055 61.864C163.14 61.7787 163.161 61.6507 163.119 61.48C163.076 61.352 163.012 61.2667 162.927 61.224L163.503 59.368C163.417 59.2827 163.375 59.1973 163.375 59.112C163.375 59.0267 163.417 59.0907 163.503 59.304L163.567 58.792L163.439 58.728C163.439 58.5147 163.481 58.344 163.567 58.216C163.652 58.088 163.716 57.9387 163.759 57.768C163.716 57.7253 163.673 57.6187 163.631 57.448C163.588 57.32 163.609 57.256 163.695 57.256C163.737 57.2133 163.759 57.2133 163.759 57.256C163.801 57.3413 163.844 57.384 163.887 57.384L164.079 57.256L163.631 56.936L163.951 54.76C163.951 54.5467 163.887 54.312 163.759 54.056C163.673 53.8427 163.652 53.5867 163.695 53.288C163.737 53.288 163.759 53.288 163.759 53.288C163.759 53.3307 163.78 53.352 163.823 53.352C163.908 53.352 163.972 53.2453 164.015 53.032C164.1 52.8613 164.121 52.7333 164.079 52.648C164.036 52.5627 163.972 52.52 163.887 52.52C163.801 52.52 163.759 52.5413 163.759 52.584C163.759 52.6267 163.759 52.648 163.759 52.648C163.716 52.6053 163.716 52.584 163.759 52.584C163.588 52.2 163.588 51.9013 163.759 51.688L163.567 51.56L163.951 51.176C163.993 51.1333 163.972 51.112 163.887 51.112C163.801 51.112 163.737 51.0907 163.695 51.048C163.652 51.048 163.609 51.048 163.567 51.048C163.524 51.0907 163.481 51.0907 163.439 51.048C163.439 50.7067 163.396 50.344 163.311 49.96C163.268 49.576 163.14 49.2347 162.927 48.936C163.012 48.9787 163.055 48.936 163.055 48.808C163.097 48.68 163.183 48.5733 163.311 48.488H163.183L162.607 47.976L162.735 47.656C162.735 47.6133 162.713 47.6133 162.671 47.656C162.628 47.6987 162.607 47.72 162.607 47.72V47.528C162.607 47.3147 162.543 47.1013 162.415 46.888C162.287 46.632 162.18 46.4613 162.095 46.376L162.223 46.248L161.903 46.12C161.86 45.6507 161.668 45.224 161.327 44.84C160.985 44.4133 160.729 43.9653 160.559 43.496L160.239 43.56L159.599 42.664L159.727 42.536L158.958 42.024C159.044 42.024 159.087 41.96 159.087 41.832C159.129 41.704 159.108 41.64 159.023 41.64C158.895 41.5547 158.788 41.5333 158.703 41.576C158.66 41.6187 158.596 41.5973 158.51 41.512L158.575 41.32L157.999 40.936H158.255C158.255 40.8507 158.191 40.7867 158.062 40.744C157.977 40.6587 157.913 40.5947 157.871 40.552V40.616L157.743 40.744C157.743 40.7867 157.764 40.8293 157.807 40.872C157.892 40.9147 157.935 40.9573 157.935 41C157.935 41 157.892 41 157.807 41C157.636 40.6587 157.359 40.424 156.975 40.296C156.591 40.1253 156.313 39.8693 156.143 39.528L155.439 39.336L155.567 38.952L154.991 39.08L154.543 38.76V38.44H154.479C154.393 38.44 154.287 38.4613 154.159 38.504C154.073 38.5467 153.988 38.568 153.903 38.568C153.903 38.568 153.945 38.5253 154.031 38.44C153.604 38.4827 153.156 38.376 152.687 38.12C152.26 37.864 151.812 37.736 151.343 37.736C151.343 37.6933 151.385 37.6507 151.47 37.608C151.556 37.5653 151.599 37.544 151.599 37.544C150.873 37.4587 150.233 37.3093 149.679 37.096L149.359 37.544V38.248L148.975 38.376H149.231V38.952L148.975 38.76V39.592L149.103 39.72L148.975 40.424C148.719 40.424 148.612 40.5093 148.655 40.68C148.74 40.8507 148.847 40.8507 148.975 40.68V40.872C148.975 41.2133 148.911 41.512 148.783 41.768L148.335 42.216L148.719 42.664C148.633 42.6213 148.548 42.8773 148.463 43.432C148.42 43.944 148.42 44.3493 148.463 44.648L148.015 44.84C148.015 45.224 148.1 45.5227 148.271 45.736L148.015 46.184H148.271L148.015 46.76C148.143 47.0587 148.207 47.4213 148.207 47.848C148.164 47.8053 148.036 47.848 147.823 47.976C147.652 48.0613 147.737 48.0827 148.079 48.04C148.079 48.5093 148.036 48.9573 147.951 49.384C147.908 49.8107 147.908 50.28 147.951 50.792L147.759 50.856L147.695 51.688C147.823 51.7307 147.887 51.8587 147.887 52.072C147.887 52.2427 147.844 52.4133 147.759 52.584C147.716 52.7547 147.652 52.8827 147.567 52.968L147.759 53.48L147.375 54.056C147.545 54.1413 147.673 54.0987 147.759 53.928L147.695 54.824L147.503 54.888H147.695L147.503 56.616C147.417 56.5307 147.332 56.5307 147.247 56.616C147.161 56.744 147.14 56.8507 147.183 56.936L147.759 57V57.576L147.503 57.704L147.759 58.024C147.759 58.0667 147.737 58.088 147.695 58.088C147.695 58.1307 147.695 58.1947 147.695 58.28L147.759 59.688C147.631 59.688 147.567 59.7093 147.567 59.752C147.567 59.7947 147.631 59.7947 147.759 59.752C147.801 59.9653 147.823 60.2 147.823 60.456C147.865 60.7547 147.887 61.032 147.887 61.288C147.887 61.416 147.887 61.544 147.887 61.672C147.887 61.8427 147.844 61.992 147.759 62.12C147.801 62.1627 147.844 62.1413 147.887 62.056C147.929 62.0133 147.951 62.0133 147.951 62.056L148.015 62.568L147.631 62.76H148.015C148.1 62.8027 148.121 62.9093 148.079 63.08C148.036 63.2933 148.036 63.3787 148.079 63.336L148.207 63.784L148.015 63.976L148.335 64.808L148.079 65.512L148.271 65.448L148.335 66.408C148.505 66.4507 148.633 66.5147 148.719 66.6C148.804 66.728 148.676 66.7493 148.335 66.664L148.847 67.56L148.655 68.008L148.783 67.88C149.039 68.264 149.231 68.6907 149.359 69.16C149.145 69.16 149.06 69.2027 149.103 69.288C149.188 69.3733 149.295 69.3733 149.423 69.288C149.508 69.7573 149.657 70.1627 149.871 70.504L149.743 70.632C149.956 70.8453 150.148 71.144 150.319 71.528C150.532 71.912 150.724 72.232 150.895 72.488L151.023 72.36L151.151 72.808L152.367 73.704L152.623 73.64L153.263 74.088L153.903 74.024ZM164.719 46.888C164.719 46.8453 164.697 46.76 164.655 46.632C164.399 46.8027 164.356 46.9093 164.527 46.952L164.719 46.888ZM164.975 62.888C164.975 62.9307 164.975 62.952 164.975 62.952C164.975 62.9093 164.975 62.8667 164.975 62.824V62.888Z" fill="white"/>
</svg>
